<svg xmlns="http://www.w3.org/2000/svg" xmlns:xlink="http://www.w3.org/1999/xlink" width="80px" height="92px" viewBox="0 0 80 92"><title>dog</title><g id="Home" stroke="none" stroke-width="1" fill="none" fill-rule="evenodd"><g id="Pets-Care" transform="translate(-986.000000, -925.000000)" fill="#090B0D"><g id="About" transform="translate(-177.000000, 805.007828)"><g id="Group-14" transform="translate(941.000000, 49.000000)"><path d="M241.761088,72.8959083 C242.229768,74.0199883 242.511706,75.4260258 242.698447,76.4586197 L242.698447,76.4586197 L242.698447,76.7405583 C242.980385,78.8057461 243.167126,81.0539062 243.262324,83.8659811 L243.262324,83.8659811 L243.262324,86.1141412 C243.262324,86.5828203 243.170782,87.1430231 243.075583,87.7069004 C242.888843,89.0177022 242.702102,90.5189753 243.170782,91.6430553 C243.544225,92.5803949 244.203338,92.7671354 244.576819,92.7671354 C246.828729,92.7671354 249.545587,86.5828016 249.827525,85.8321838 C249.919068,85.6454433 250.014266,85.5539009 250.014266,85.4587028 C250.105808,85.3635047 250.105808,85.1767641 250.201006,84.8948255 C250.482964,84.0527028 251.043148,81.991227 251.793765,81.8960289 L251.793765,81.8960289 L252.075704,81.8960289 C252.167246,81.8960289 252.167246,81.9875713 252.262445,82.0827694 C252.449185,82.3647268 252.639581,83.1153633 252.075704,85.3635234 C251.793765,86.4876035 251.420284,87.6116835 251.138346,88.6442774 C250.761172,89.8598437 250.38769,91.0791593 250.105752,92.298475 C249.545568,94.5466351 249.823776,96.1431062 250.85637,96.9852664 C248.326252,97.2672238 246.169578,96.9852664 244.294862,96.0479081 C244.012923,95.9563657 243.730984,96.0479081 243.544244,96.3298468 C243.452701,96.6117854 243.544244,96.893724 243.826182,97.0804645 C246.169578,98.2045633 248.794931,98.486502 251.98045,97.9226247 C253.950402,97.6406673 255.825118,96.9852289 257.699835,96.4213517 C259.014386,95.9526913 260.325188,95.5792102 261.544504,95.2972716 C262.855306,95.015333 266.699974,94.077956 268.761413,95.2972716 C269.416851,95.7659508 269.793988,96.3261348 269.980728,97.0767526 C270.731365,100.357507 267.91929,101.950285 265.480659,102.700902 C264.169857,103.074383 263.045758,103.261124 262.29514,103.356322 C256.393533,104.011723 250.300329,102.418964 245.518302,99.1382097 C245.240019,98.9514692 244.862882,99.0430116 244.676141,99.3249502 C244.580943,99.6032331 244.580943,99.9803699 244.862882,100.16711 C249.171918,103.165907 254.422812,104.758666 259.765004,104.758666 C260.610876,104.758666 261.548197,104.758666 262.390357,104.663468 C263.045758,104.56827 264.169838,104.473072 265.389154,104.099591 L265.389154,104.099591 L265.484352,104.099591 C271.108502,105.596552 276.732276,110.378767 282.72987,118.533034 C286.856871,124.061573 290.229111,130.813927 293.605101,139.623595 C291.635148,140.18751 289.009795,140.18751 287.417036,138.686237 C287.138753,138.404298 286.761616,138.499497 286.574876,138.686237 C286.292937,138.96452 286.292937,139.341657 286.574876,139.528397 C288.73155,141.498349 292.10379,141.498349 294.542421,140.560991 C295.293058,140.279071 296.039982,139.90559 296.60386,139.436911 C299.03876,137.562194 299.415897,134.186205 299.320699,131.37413 C300.818223,131.652338 301.568878,133.527055 301.850816,134.559648 C302.319496,136.621087 301.664095,139.059718 300.162822,140.934435 C299.133977,142.15375 297.72794,143.091109 296.039945,143.559788 C293.883271,144.215207 291.166432,144.215207 288.7278,143.46459 C288.350664,143.369392 288.072381,143.556132 287.977183,143.838071 C287.881985,144.215207 288.068725,144.49349 288.350664,144.588688 C289.756701,145.057368 291.162739,145.244108 292.568776,145.244108 C293.59762,145.244108 294.721701,145.152566 295.754294,144.870627 L295.754294,144.870627 L295.754294,144.965825 C296.318209,147.027264 297.537525,148.715258 298.661605,150.308018 L298.661605,150.308018 C298.940375,150.68626 299.130771,151.059741 299.409054,151.433222 C300.815092,153.494661 301.097068,154.713995 300.064474,155.464608 C298.845158,156.310443 296.878956,155.373066 295.846362,154.622453 C293.784923,153.124929 293.129504,150.781533 292.847565,149.28026 C293.502966,148.903105 293.971683,148.529624 294.53556,148.060945 C294.7223,147.782662 294.7223,147.500723 294.53556,147.218785 C294.257277,147.032044 293.975338,147.032044 293.6934,147.218785 C293.129485,147.687426 292.474103,148.156105 291.818683,148.529586 C289.380052,149.935643 286.472741,150.404322 283.755902,149.748902 C283.473963,149.748902 283.195681,149.935643 283.100482,150.217581 C283.005284,150.217581 282.913742,150.312779 282.818544,150.49952 C281.93977,153.050072 283.452139,155.021288 284.957011,156.802446 L285.257175,157.156259 C285.725854,157.716424 286.289732,158.371863 286.663213,158.93574 C287.318632,159.968334 287.977708,161.469569 287.41383,162.311729 C286.571708,163.531045 284.228293,162.406927 283.946355,162.311729 C278.508908,159.68619 276.538974,152.000418 277.75829,146.281033 L277.75829,146.281033 L277.75829,145.999094 C277.945031,145.717155 277.75829,145.343674 277.476351,145.248476 C273.07133,143.464871 270.164019,139.341994 267.351945,135.310604 C266.506072,134.091288 265.755473,132.967208 264.913313,131.934614 C261.537136,127.52978 257.882939,122.934475 253.851548,118.811598 C253.287633,118.156197 252.632251,117.500759 251.976831,116.936881 C250.757516,115.812801 248.978035,114.593467 246.634639,114.311528 C246.352663,114.21633 245.975526,114.21633 245.602045,114.21633 C243.540607,114.21633 240.820018,114.685009 239.040537,116.091047 C238.381424,116.654961 238.194684,117.497103 238.007943,118.247721 C237.726023,119.37182 237.634481,119.653758 236.883863,119.653758 C235.477788,119.562272 234.913911,117.874277 234.913911,116.654961 C234.913911,112.997015 239.791174,111.404274 242.976692,111.217534 C243.258631,111.217534 243.445371,111.125991 243.540569,110.844052 C243.635767,110.562114 243.540569,110.283831 243.353829,110.188633 C242.043027,109.342761 240.728476,108.40544 239.417674,107.56328 C238.198358,106.721157 236.887556,105.875322 235.668241,105.033162 C235.386302,104.846422 235.104364,104.564483 234.917623,104.377743 C233.980265,103.440384 233.324864,102.316304 232.856185,101.096989 C231.16819,96.4101971 233.229628,90.8814705 235.104345,85.9127216 L235.104345,85.9127216 L235.573024,84.6019198 C236.136939,83.0091606 236.887556,81.0392084 237.074297,78.9777701 C237.169495,78.3186197 237.169495,77.6632375 237.169495,77.0078179 C237.169495,76.0704596 237.264703,75.1331013 237.447778,73.8332666 C237.447778,73.809467 237.453728,73.785896 237.462653,73.7624392 L237.528101,73.6221553 L237.528101,73.6221553 L237.542976,73.5513279 C238.106891,73.8332666 238.949051,73.7380685 239.512928,73.7380685 C240.168329,73.7380685 241.292409,73.5513279 241.761088,72.8959083 Z M232.013575,102.038415 C232.482254,103.067259 233.04615,103.913094 233.701569,104.755254 C233.610027,104.850452 233.610027,104.850452 233.514829,104.850452 C230.32931,106.629933 229.673872,110.192645 229.109995,113.286677 C229.018452,113.56496 229.018452,113.846899 228.923254,114.128837 C228.454575,116.376997 227.425731,119.002332 225.924458,119.657751 C225.360543,119.848147 224.705123,119.752949 223.954505,119.28427 C220.765256,117.222644 222.079808,112.067174 223.672567,109.159863 L223.672567,109.159863 C225.638788,105.502235 229.2015,103.349217 232.013575,102.038415 Z M246.633927,115.531069 C248.1352,115.626305 249.446002,116.281705 250.947275,117.501021 C250.855732,117.592563 250.760534,117.592563 250.760534,117.687762 C250.291855,118.815554 249.636473,119.470973 248.981053,119.657714 C248.603898,119.752912 248.230417,119.752912 247.761737,119.470973 C246.542403,118.815572 245.886983,117.127578 246.260464,115.816776 C246.355663,115.721578 246.260464,115.630035 246.260464,115.534837 C246.355644,115.534734 246.542384,115.626267 246.633927,115.531069 Z M240.076515,92.473761 C239.421114,90.9724879 236.700544,91.9098462 237.451162,93.597841 C237.824709,95.3810714 241.013873,94.253242 240.076515,92.473761 Z M244.012661,77.3849359 C245.700655,75.6017242 248.139287,75.7921579 249.732046,76.6343181 C251.420003,77.5716764 252.166965,79.1644356 251.793484,81.0391522 L251.793484,81.0391522 L251.698286,81.0391522 C250.292249,81.1343878 249.636848,83.3825479 249.168169,84.7885853 C249.076626,84.9789815 249.076626,85.1657221 248.981428,85.3524626 L248.981428,85.3524626 L248.981428,85.4476607 C248.794688,85.3524626 248.699489,85.3524626 248.512749,85.3524626 C247.293433,85.7259061 245.605438,85.257227 244.481358,84.3198687 C244.386142,81.5078126 244.199401,79.3512324 243.917462,77.3849359 L243.917462,77.3849359 Z M239.603983,71.0099059 C239.790705,71.0099059 240.35462,70.9183635 240.823299,71.2918445 C240.918497,71.2918445 241.291978,71.5737832 241.387176,71.9472642 C241.482374,72.0388066 241.482374,72.1340047 241.482374,72.3207452 C241.387139,73.071363 240.167842,73.2581035 239.512422,73.2581035 C238.948639,73.2581035 238.011243,73.4448347 237.451021,72.9798206 L237.451021,72.9798206 L237.355823,72.8846225 C237.729267,71.9472642 238.571389,71.0099059 239.603983,71.0099059 Z" id="dog"></path></g></g></g></g></svg>