<svg xmlns="http://www.w3.org/2000/svg" height="363" viewBox="0 0 240 363" width="240"><g fill="none" fill-rule="evenodd" transform="matrix(-1 0 0 1 240 0)"><path d="m104.345749 329.28s-2.601848 10.446303.402099 15.279211l.852152 2.000789-17.28-3.810905 1.1621892-1.749101c2.0676814-3.114315 3.3047513-6.60489 3.6104286-10.189531z" fill="#fff"></path><path d="m89.7914879 342.822077 15.2733861 3.369701-.40706-.957731c-2.577538-4.206455-1.166041-12.190907-.622024-14.741496l-9.9135099 1.350905c-.3714866 3.473035-1.6201086 6.893143-3.6246626 9.915036zm16.2094711 4.697923c-.040401 0-.081056-.00252-.121457-.012602l-17.1219259-3.777996c-.179391-.037806-.3275282-.163823-.396642-.332686s-.0498026-.360409.051073-.51163l1.1515578-1.736517c1.9877838-2.99669 3.1937178-6.399156 3.4871974-9.841947.0221062-.259595.2218247-.466263.4810015-.504068l11.1504432-1.517248c.181932-.025203.367929.040326.491419.176424.123999.138619.171768.325125.127302.504069-.025156.100814-2.48708 10.189754.33134 14.723854.014991.025203.02795.050407.03913.07561l.844611 1.986032c.081311.191546.048278.410816-.08563.569598-.107736.128537-.265783.199107-.42942.199107z" fill="#000"></path><path d="m106.099127 339.208762 1.540465 2.169689c3.050579 4.29428 7.128478 7.80186 11.882084 10.22209l3.652721 1.859017c.347756.177884.583108.511104.628121.889422l.022892.192917c.254901 2.144634-2.809568 6.596755-10.823126 7.280733-4.957577.423415-16.3329457-.295638-29.3159129-7.010148-.8202612-.423415-1.263444-1.315343-1.0885372-2.202259.6381524-3.236995 2.4664422-10.921101 5.9874692-14.408637.3919969-.388339 1.0370941-.375812 1.3938524.042592l3.4317731 4.028706c1.539951 1.806403 4.2965327 2.051934 6.1469431.54618l4.7265973-3.848316c.559444-.455985 1.399768-.345747 1.814658.238014" fill="#fff"></path><path d="m88.8450721 338.097225c-.104004 0-.2023722.043987-.2779416.121611-3.4075385 3.500845-5.1996854 11.369337-5.8119255 14.588148-.1275713.672742.1916132 1.342897.7948874 1.66633 14.8249184 7.951292 26.6603636 7.371699 28.8833836 7.175051 5.481982-.483857 8.076189-2.755654 9.134417-4.067501.94039-1.164361 1.202449-2.220048 1.133797-2.817753l-.022799-.199235c-.023568-.206998-.14576-.385533-.32687-.48127l-3.637833-1.919901c-4.795965-2.530545-8.958173-6.24615-12.036024-10.737996l-1.53393-2.240748c-.108871-.157835-.272818-.258746-.462126-.284621-.188796-.025875-.374005.028462-.520276.150073l-4.7078442 3.974352c-1.0072501.851277-2.2816828 1.252335-3.5896734 1.133311-1.3072222-.121611-2.4886661-.747778-3.3268457-1.769828l-3.4180414-4.158063c-.0876092-.108673-.1992982-.126786-.2579605-.129373-.0053795 0-.0110152-.002587-.0163947-.002587zm21.2214179 24.782775c-4.741658 0-14.9360952-.905614-27.0446147-7.400161-1.0431136-.56148-1.5951543-1.720666-1.3733133-2.887615.6314526-3.322309 2.4914839-11.449549 6.1149714-15.170329.301509-.310496.7172687-.478681 1.1455805-.460569.417809.018112.8107698.21476 1.07744.540781l3.4182975 4.158062c.6450294.78659 1.554936 1.270447 2.5619299 1.363596 1.008531.093149 1.9888835-.217347 2.7648145-.871977l4.7073322-3.974352c.3863-.326021.89428-.476094 1.394575-.406233.499526.067275.950637.346721 1.237288.765891l1.534187 2.240748c2.974359 4.341773 6.996443 7.928004 11.631535 10.37575l3.637833 1.919902c.512335.271684.857649.778828.923996 1.358421l.022799.199235c.125266 1.091912-.377847 2.429633-1.379717 3.66903-1.170685 1.45157-4.015168 3.961415-9.909579 4.484084-.45188.038812-1.292109.093149-2.465355.095736z" fill="#000"></path><path d="m102.993532 355.2c-.064978 0-.129956-.00488-.195696-.009759-5.7447247-.612408-11.1942561-2.332518-16.197063-5.111532l-2.8016733-1.556638c-.2670195-.148832-.3583949-.478215-.2040719-.734402.1540692-.256186.4954581-.344022.7627313-.195189l2.8019272 1.556638c4.8680281 2.703378 10.170851 4.37713 15.7607457 4.972459.195695.021959.384792-.046358.517286-.18787.131987-.141513.183513-.326943.141886-.512374l-.338851-1.502961c-.133256-.590449.101275-1.178458.612216-1.532239.51221-.353782 1.166306-.38062 1.70796-.073196l1.398806.797838c4.009606 2.28372 8.883472 2.901007 13.370261 1.688391l.880758-.236667c.297478-.080516.604855.085395.688362.37086.083253.285465-.089852.583129-.386823.663645l-.880758.236668c-4.779444 1.288252-9.971094.634366-14.24112-1.800626l-1.398806-.795398c-.2325-.134193-.430226-.019519-.485813.019519-.055079.039038-.230215.182991-.17336.434297l.338597 1.502961c.118535.527013-.028682 1.056465-.404082 1.459044-.33149.351341-.787606.546531-1.273419.546531" fill="#000"></path><path d="m41.28 290.407765s-8.4604757 7.593882-9.1586554 13.58047l-.5900398 2.251765-11.3713048-15.666588 2.1045095-.401177c3.508794-1.501176 7.0170767-2.104235 9.4700369-5.052235z" fill="#fff"></path><path d="m20.7335008 291.485418 10.0713756 13.863542.2768493-1.055169c.6354084-5.209098 6.7433479-11.393779 8.6891593-13.247386l-8.4001297-4.649421c-1.8831333 2.06156-4.2567796 2.926748-6.7618722 3.840715-.8335929.302944-1.6953529.618725-2.5441713.980717-.0367948.015404-.0753659.028241-.1141908.035943zm10.3119376 15.714582c-.1753464 0-.3433337-.084722-.4496581-.231059l-11.2873808-15.537437c-.1136833-.156607-.1398204-.361993-.0695296-.541705.0702908-.18228.2276204-.313214.4159083-.349156l2.0305664-.385099c.8582074-.367127 1.7153997-.677773 2.5451863-.980717 2.4964648-.908832 4.8546319-1.768885 6.5895709-3.853551.17154-.205386.4615847-.261867.6952952-.130934l9.4742846 5.245041c.1596134.087289.2664452.24903.2867458.43131.0205543.18228-.0484677.36456-.1842278.485224-.0822174.074452-8.2466065 7.46064-8.9066294 13.116452-.0030451.025673-.008374.051346-.014718.077019l-.5856719 2.233571c-.0553191.210521-.2245753.369695-.4357014.410772-.0347648.007702-.0695295.010269-.1040405.010269z" fill="#000"></path><path d="m35.4701602 301.745083-.7735577 2.691936c-1.5322097 5.335393-1.7339515 10.959117-.5877497 16.388919l.880468 4.169312c.0837807.398049-.0359794.811408-.3199599 1.102291l-.1444317.150544c-1.6051965 1.650884-7.3166739 2.207133-13.1882597-3.730437-3.6323804-3.671751-10.5699852-13.240246-13.61230296-28.139031-.19223295-.941539.252113-1.898389 1.10225551-2.357677 3.09962785-1.673848 10.66404575-5.399182 15.88106295-4.942446.5805538.051032.9971442.574109.8871499 1.143116l-1.0593372 5.457869c-.4754424 2.449535 1.1472298 4.814867 3.6187596 5.276706l6.3123338 1.176287c.7468302.140338 1.2117358.885405 1.0035691 1.612611" fill="#fff"></path><path d="m23.2929032 287.197591c-4.9982274 0-11.7975949 3.375249-14.60149722 4.892586-.63001579.343116-.9567758 1.042057-.81370652 1.746081 3.46891904 17.021115 11.75620694 26.102262 13.38234254 27.74922 4.0136042 4.066565 7.5262105 4.681633 9.2905612 4.656217 1.5581778-.007625 2.5793347-.49053 3.0146741-.937852l.1433248-.147413c.1532885-.160121.2176697-.38124.1724495-.594735l-.8752774-4.15552c-1.1537515-5.474613-.9480894-11.213552.5937375-16.591584l.7689974-2.683933c.0562058-.195703.0278474-.399031-.07971-.57186-.1083239-.175371-.2792406-.292285-.4810705-.327867l-6.2753762-1.174221c-1.3369313-.249077-2.4942595-1.001391-3.2589137-2.122238-.7641432-1.115764-1.0433838-2.462813-.7866256-3.78953l1.0533476-5.436488c.0288693-.147413-.0327016-.256702-.0717901-.307534-.0730675-.096581-.1824134-.15758-.3078544-.167746-.2817954-.025416-.5717662-.035583-.867613-.035583zm7.2262759 40.162409c-1.9357784 0-5.7845975-.658275-10.0610915-4.989166-1.6652242-1.687625-10.1499988-10.982266-13.6817661-28.313456-.24219585-1.186929.31143116-2.371316 1.37780824-2.94826 3.05963866-1.657125 10.75599936-5.459363 16.10525746-4.989166.4399381.038124.8430869.259243 1.1062321.607443.2580357.338033.3592061.775189.2782187 1.192012l-1.0530921 5.43903c-.199786 1.03189.0173727 2.079031.6118766 2.948259.5955259.869228 1.4963514 1.456339 2.5371804 1.652042l6.2753762 1.171679c.5089179.096581.9570313.401573 1.2293739.838729.2720871.439697.346943.973434.2051511 1.469046 0 0 0 0-.0002555 0l-.7692528 2.681391c-1.4920082 5.207745-1.6905168 10.758605-.5745765 16.055306l.8755329 4.15552c.1218644.579486-.0516071 1.176763-.4634423 1.60121l-.1435802.147413c-.7822824.805688-2.1741421 1.273343-3.8189278 1.278426-.0117521.002542-.0242707.002542-.0360228.002542z" fill="#000"></path><path d="m33.98885 323.52c-.1125514 0-.2261401-.032967-.3254654-.098902l-.8000484-.545229c-4.3365996-2.954381-7.2852383-7.57488-8.0899548-12.679746l-.264003-1.673726c-.0459023-.289099-.2899365-.375321-.363847-.393073-.0744291-.020287-.3296147-.063398-.5171139.167373l-1.0575681 1.306014c-.3659216.453935-.9105251.697386-1.5036242.672026-.5892091-.027895-1.1120284-.319529-1.4343818-.801359-3.3635747-5.038931-5.5782955-10.60534-6.5824405-16.539461l-.5627569-3.324629c-.051089-.304314.1592317-.590876.469915-.641595.3104239-.050719.6047692.154692.6561175.459006l.5627569 3.32463c.9779522 5.781964 3.1353599 11.203823 6.4117981 16.110885.1192941.180052.3130173.286562.531118.296706.2258808.010144.42116-.081151.5567922-.248523l1.0578274-1.306014c.4105273-.50719 1.0611988-.72021 1.7033122-.555373.6392607.164837 1.0990616.664419 1.1996836 1.303478l.2642624 1.673726c.7572581 4.805624 3.5326611 9.154777 7.614075 11.934177l.8000485.542693c.2585569.177517.3223533.524942.1423749.778537-.1107361.154693-.2883805.238379-.4688777.238379" fill="#000"></path><path d="m76.1247059 158.703612 53.0652621-1.263612s19.892109 67.244048.693418 120.883883c-11.56012 32.298543-19.48177 47.925555-22.291148 53.051337-.65848 1.199923-1.979775 1.880133-3.34213 1.722182l-9.7104094-1.118399c-1.8971462-.219094-3.2324678-1.964204-2.9460724-3.849432 2.6749786-17.60905 7.8061227-69.312704 12.3537648-95.491898.004591-.025476-.032388-.033119-.039529-.007643-1.307014 4.588237-14.4592683 46.279802-65.9114842 66.021197-.9815991.374498-2.0953022.04331-2.7213936-.799948l-6.0114974-8.09629c-.5931929-.799948-.6204808-1.885228-.0617166-2.708105 7.3422286-10.817133 58.6355627-77.289257 46.9229357-128.343272" fill="#090b0d"></path><path d="m100.395122 243.84c-.051964 0-.104685-.007581-.157406-.022744-.2938738-.088451-.4616217-.396763-.3748468-.69244.3021988-1.023497.5985948-2.039413.8914598-3.040165 3.976507-13.601137 7.410672-25.349871 15.504443-30.712489.255784-.16932.599857-.098559.769118.156683.169009.25777.098883.601463-.156649.770782-7.755248 5.137702-10.975251 16.153561-15.052154 30.098391-.292865 1.000752-.589514 2.016668-.891965 3.042692-.071135.240079-.29236.39929-.532.39929" fill="#fff"></path><path d="m104.98818 78.2892084s1.411375-3.8796609 12.733378 9.3701094c5.458186 6.3876056 15.666822 13.8784202 25.237419 14.7663632 10.281664.953725 20.043416-5.0197294 28.900382-7.3095919 17.098953-4.4215388 13.350149 11.2084499 7.784597 15.8209379-6.800632 5.63123-21.414049 14.339158-33.336168 14.794775-11.922374.455618-40.973939-4.640644-42.985942-13.07469-2.01226-8.433022 1.666334-34.3679036 1.666334-34.3679036" fill="#fff"></path><path d="m106.092798 78.0642415c-.24243 1.742086-3.55845 25.9968515-1.659161 33.9458045 1.807994 7.568852 29.502274 13.091793 42.331361 12.599448 11.741735-.448978 26.127692-8.987215 32.930047-14.617298 3.268199-2.701522 5.669482-9.103286 3.815456-12.7201107-1.460204-2.8494803-5.293561-3.5652942-11.083235-2.0706563-2.792546.7209159-5.646977 1.8015245-8.669678 2.9453983-6.51415 2.4650427-13.251806 5.0145237-20.365381 4.3550877-9.554496-.884946-19.948545-8.3497172-25.56279-14.9109197-8.061302-9.4206317-10.809095-9.7716509-11.461201-9.6537942-.158295.0285714-.243708.0959181-.275418.1270404zm39.19256 47.6957585c-12.406625 0-39.882002-4.849474-41.94598-13.489751-2.010019-8.411451 1.5024-33.4009081 1.652768-34.4605985.005626-.0385202.015344-.0765303.028386-.1130098.02634-.0719385.281044-.7073956 1.14745-.8637726 2.25475-.4068864 6.472466 2.9655513 12.5171 10.0295582 5.471293 6.3941112 15.569465 13.6660257 24.81095 14.5221457 6.859382.634946 13.467896-1.8675963 19.862365-4.287231 3.052365-1.1550982 5.935438-2.246166 8.787569-2.982388 8.034962-2.0752481 11.159953.2936215 12.366988 2.6459095 2.135325 4.1637615-.496112 11.1165445-4.099314 14.0961265-6.922547 5.727021-21.583923 14.415768-33.605935 14.87495-.476676.017857-.986086.028061-1.522347.028061z" fill="#000"></path><path d="m128.272679 141.356022c1.943291-20.334334-13.324698-56.5479871-16.21506-59.3952535-4.315935-4.2514922-13.8220434-10.4534258-33.1408683-8.6942492 0 0-10.2048887 4.9677776-13.646839 15.4771272-3.3617333 10.2647145 3.100964 37.0660455 5.4137631 60.5923825 0 0 .4772281 6.46572 2.4546433 10.824719.6636374 1.460661-2.6777232 3.087305-3.7605268 4.269623-2.1162036 2.316117-4.9940876 7.150086-.5984451 13.67454 10.1048084 14.999859 41.7462538-14.055027 52.1989238-14.690874 6.80292-.411129 9.414177 1.935631 10.104554 4.060228 0 0 8.645621-1.241051 1.35325-19.340983-.677389-1.68027-1.690417-3.199663-2.910226-4.540304-.051186-.05618-.103391-.114912-.156105-.178753-.32749-.385593-.691904-1.08528-1.097064-2.058203" fill="#fff"></path><path d="m79.6035882 74.377482c-.9924691.5143163-10.0895529 5.4542513-13.2389342 15.0809154-2.1967938 6.7144153-.032261 21.1578536 2.2595376 36.4496466 1.1786683 7.866463 2.3972182 15.998117 3.1658928 23.823782.0060966.079047.4940754 6.425765 2.4012826 10.633112.6464894 1.425398-1.0168554 2.664653-2.4840942 3.756013-.5504686.410535-1.0702003.798121-1.3643593 1.119409-1.9925591 2.182721-4.7139111 6.767454-.5453881 12.961178 6.3810662 9.483104 22.3337318.196343 35.1525116-7.264685 6.848469-3.985505 12.762894-7.427879 16.41956-7.649721 7.338226-.446234 9.698611 2.297466 10.45052 3.939606.571553-.203993 1.614319-.747123 2.390106-2.121523 1.243444-2.200569 1.923973-6.818451-1.895522-16.306655-.617531-1.535044-1.558941-3.003791-2.797813-4.367991-.055377-.061198-.111008-.124946-.168164-.191243-.360205-.425835-.736413-1.124509-1.184765-2.20312-.035563-.086697-.04928-.178493-.040643-.27029 1.906699-19.973422-13.286183-56.1696078-16.009821-58.855425-4.858958-4.7915303-14.4417348-10.1552598-32.5099068-8.533009zm-1.7776553 108.982518c-3.6561579 0-6.771246-1.285153-8.9545766-4.528635-4.5978224-6.833751-1.567324-11.923365.6477595-14.348327.3663016-.400335.9279472-.81852 1.5221078-1.262204.957922-.713974 2.405093-1.792585 2.13278-2.391813-1.9907809-4.39094-2.4774896-10.732559-2.4970494-11.000299-.7648643-7.784866-1.981128-15.90122-3.1577641-23.752384-2.4127137-16.097563-4.4962131-30.0001668-2.2163537-36.9680428 3.4674186-10.5981788 13.475176-15.5776373 13.899649-15.7844347.0607116-.029579.1262496-.0479383.1935658-.0538031 18.5635174-1.6933933 28.4635688 3.8733088 33.5005978 8.8400178 2.844045 2.8048978 18.254371 38.8078008 16.352498 59.6226918.368842.872068.688403 1.468747.950301 1.779835.048265.056098.096021.109646.143016.163194 1.328796 1.461097 2.341079 3.042039 3.008398 4.702029 3.213141 7.983759 3.822035 13.810297 1.8089 17.321519-1.383919 2.412212-3.508062 2.74115-3.597732 2.753899-.272567.038249-.526845-.122395-.610418-.379936-.406692-1.252004-2.149546-4.113-9.514445-3.666766-3.392481.206542-9.480659 3.748363-15.926247 7.501826-9.0767615 5.280858-19.6774094 11.451633-27.6849871 11.451633z" fill="#000"></path><path d="m115.266863 49.6238528s6.572003.1300669 5.593859-11.9605545c-1.246273-15.4089817-16.52464-11.193389-21.6959523-12.7297564-5.1713118-1.5363675-9.2713725-7.3137811-10.9292551-10.9296917-4.6035055-10.0403497-31.9101077-20.95196944-41.7826121-8.28635564-.4472238.5734652-.7138283 1.25154388-1.1699559 1.81508224-1.3933134 1.72090464-3.2717553 3.9442595-16.7355332-.67476974-11.8501597-4.06541768-33.11288033 1.97722042-27.67369212 17.92963224 1.56884494 4.6009573 4.91971661 8.4614751 9.26628462 10.9396185.7883655.4492526 1.6555931.8997779 2.6049898 1.3363037 2.7456694 1.2627434 5.0489485 3.7248512 5.0682824 6.6377387.1030294 15.3998185 7.6697108 30.6716063 42.7910281 13.2589327 2.4943286-1.2367809 5.5536653-.6803695 7.9754917.7070955 2.9764044 1.7056326 6.0062314 10.3931339 21.1609632 8.228831 9.2830746-1.3256133 13.8290869-7.6192219 16.9016519-11.5879167 3.606029-4.6574638 8.62445-4.6841899 8.62445-4.6841899" fill="#090b0d"></path><path d="m100.774334 42.0813606c.437218.3502304 1.392646.5583862 1.932947.3875917 4.020266-1.2720632 4.245222-3.2740697 6.092351-4.8129993 5.845051-4.8699309 10.447765-.3497221 11.062459 3.0321108.536238 2.9507801-.583464 4.5362207 1.973571 8.611398.245014.3903874-.083026.9187829-.481396 1.1465089l-2.140892 1.3783015c-.447373.2554293-.934101 1.2535097-1.053181 1.7613184-.367394 1.5694286-1.020935 4.9248291-1.623187 5.2880215-1.174546.7078314-6.418867-.3354892-6.418867-.3354892l-6.229457 14.1728941c-1.1423 2.6196116-.57737 4.8208783.043163 6.1458065.382629.8176279-.180016 1.7653849-1.082379 1.7811427-1.699866.0299907-4.9106959-.2622916-10.9713086-1.5058891-8.0189498-1.6449137-12.1981574-5.1883914-12.1981574-5.1883914s16.4421096-1.9549871 19.7313948-21.6759069c.0690611-.4140242-.0190425-.8394855-.3128058-1.1320219-1.1268118-1.1228722-4.1279196-4.3880464-3.1526865-7.1563407 1.0354075-2.9385804 3.3321944-3.0974295 4.8284315-1.8980556" fill="#fff"></path><path d="m80.6350366 74.6660236c1.6580525 1.1002372 5.3528737 3.1887629 10.9071221 4.3282581 6.2309787 1.2785445 9.3128213 1.5151056 10.8102293 1.4895246.227938-.0043057.427289-.1170141.547456-.3100116.12548-.2016088.139141-.4526067.036683-.6714384-.68938-1.4733149-1.257327-3.8118255-.049079-6.5839471l6.207704-14.125536c.105241-.2390939.361513-.3735842.617785-.3219156 2.412196.4794542 5.392087.7702167 6.000005.4034709.339757-.3452171.923389-2.9613198 1.172831-4.0785265.069064-.311278.133069-.5974815.18999-.8408811.124215-.530363.653962-1.7339374 1.315261-2.1118273l2.108363-1.3585802c.217059-.1251191.316988-.3259681.307627-.3816891-1.839441-2.93042-1.855126-4.6993096-1.870558-6.4101987-.006578-.7365308-.013155-1.4983893-.170511-2.3635851-.293714-1.6166698-1.669184-3.6449156-3.728721-4.393857-1.979594-.7198144-4.190668-.1322108-6.390105 1.700758-.531518.4429823-.923389.9353536-1.338029 1.4563453-.940339 1.1815393-2.005905 2.5206171-4.920778 3.4428002-.702535.2218711-1.843489-.0032926-2.441289-.4824935-.6390359-.5123802-1.394191-.6952466-2.0711743-.5014893-.8092936.2314956-1.454907.9725853-1.8672698 2.1434869-.8361098 2.3727031 1.8260335 5.3717612 3.0092364 6.5512743.4014845.4001783.5722482.9887951.4677661 1.6148969-2.7630836 16.5676371-14.8463251 20.8366283-18.8505448 21.8051613zm21.4871364 6.9339764c-2.2725486 0-5.9043769-.5090877-10.8033986-1.5138393-8.0370265-1.6490894-12.2276949-5.1433049-12.4022534-5.2914722-.1687399-.1431018-.2365394-.3730777-.1730406-.5850709.0634988-.2122465.2471647-.3667457.4667542-.3930866.652191-.0787692 16.0105543-2.1488058 19.1776523-21.1392948.0207446-.1253724.0475608-.4391831-.1555848-.6415518-1.6555227-1.6503558-4.2827543-4.8469703-3.2733509-7.7117914.6787542-1.9274413 1.7946635-2.6107839 2.6110407-2.8443057 1.0276181-.2938018 2.1483342-.0379916 3.0727351.7033515.301556.2416267 1.06506.398912 1.410382.2897494 2.591308-.8198591 3.462835-1.915284 4.385213-3.0745348.431589-.542267.877346-1.1025167 1.496902-1.6184429 3.184301-2.653841 5.825952-2.4935164 7.481981-1.8919824 2.568286.9338339 4.103895 3.3718825 4.443652 5.2420831.174305.9589084.181642 1.7693962.188725 2.5530366.014926 1.6977186.027828 3.164195 1.701566 5.831713.163933.2608758.210229.5787389.131298.8945759-.102205.4082832-.411351.8021297-.806005 1.0280531l-2.108615 1.3585802c-.25602.1471542-.695452.9313012-.808282 1.4135414-.056162.240107-.119408.5225114-.187714.8297369-.672935 3.0157745-1.075685 4.4229839-1.684868 4.7899829-1.143738.6891679-4.886373.0894069-6.351399-.1810934l-6.028339 13.7177594c-1.041533 2.3889128-.554793 4.3986693.037441 5.6637901.263103.5625292.225408 1.2106661-.100687 1.7339373-.318759.5118737-.868998.8239115-1.471857.8342959-.081461.0015197-.164692.0022795-.249948.0022795z" fill="#000"></path><path d="m98.8196049 149.402304c-8.0417822-1.392091-20.4119737-.561031-29.6996049 4.506601l1.466977 9.291095c11.5352996-7.343216 19.9058475-5.594582 29.253023-5.306201z" fill="#fff"></path><path d="m70.2913656 153.769054 1.2626402 7.937217c9.6631094-5.868777 17.0432376-5.475282 24.8454274-5.061076 1.048951.056953 2.1277779.113906 3.2106558.152738l-.8841266-7.297787c-7.8629546-1.255561-19.5193999-.414205-28.4345968 4.268908zm.8453892 9.430946c-.078741 0-.1574819-.018121-.2311592-.051776-.1691284-.077663-.2888856-.238168-.3185084-.427149l-1.4598723-9.174657c-.0382312-.240757.0779814-.481514.2891388-.59542 9.343335-5.055899 21.75225-5.907609 29.9033306-4.507076.2430589.04142.4301636.240757.460546.491869l1.0155307 8.385077c.020001.163093-.031395.328776-.141025.453037-.10963.121673-.263567.188982-.428138.186393-1.3127714-.041421-2.6202255-.111318-3.8851444-.178626-7.8138364-.414206-15.1947242-.805113-24.9120155 5.332898-.0891215.056953-.1906493.08543-.2926833.08543z" fill="#000"></path><path d="m79.2375194 73.9412707c3.4833515-.2191127 7.1638835 1.1530233 12.5098906 8.893985 6.203424 8.9820897 7.4524031 17.2682793 8.48283 20.6157503.422857 1.373157 1.707455 2.292511 3.139367 2.259312l9.125511-.201747c2.153465-.048521 3.653563-2.160482 2.991036-4.217537-2.292381-7.1165668-7.32697-21.1936659-12.026226-23.7742419l2.905804.8294617c3.177277.9065853 7.078142 4.0117039 8.899072 6.7779383 7.217567 10.9650854 17.35773 33.9780509 22.229232 64.5159309 0 0 11.674609 68.657876 3.74592 103.751665 0 0-36.943219 12.740716-61.5683852 3.261154-24.6254204-9.479563 7.4419716-49.022005 12.3223784-89.614043 2.6773288-22.266246 4.489099-58.440276-.0979542-70.7379146-8.2258592-22.0535177-22.775995-13.6457689-22.775995-13.6457689s3.7431209-8.3130042 10.1175194-8.7139448" fill="#ffd100"></path><path d="m75.1655866 80.1122959c1.4131122 0 2.9697198.2153827 4.5913448.8010502 5.1480561 1.8595899 9.2593897 6.8317663 12.2204743 14.77847 4.765825 12.7917939 2.6085686 50.3076869.1292729 70.9527839-1.8504557 15.405989-7.6011925 30.666518-12.6748341 44.133042-8.2389216 21.862367-14.7462474 39.133815.019556 44.824615 22.9582475 8.847534 57.2493295-2.003264 60.7831265-3.166943 7.661892-34.657733-3.698118-102.467563-3.814184-103.15148-4.751095-29.814174-14.533925-52.7399292-22.105402-64.2544833-1.827345-2.7798151-5.671751-5.7150426-8.569342-6.5426329l-.439122-.1252996c4.098889 4.6365979 8.056822 15.5943213 10.227539 22.3408528.369533 1.149134.182608 2.372528-.513789 3.356296-.696905.985044-1.787216 1.566884-2.991054 1.592403l-9.109545.201602c-1.685372.033175-3.1876294-1.053946-3.6798313-2.653494-.186671-.607359-.3796914-1.36962-.6024267-2.251821-1.0303732-4.0751742-2.7548577-10.8957121-7.7904032-18.1949916-5.463492-7.9188876-8.9901771-8.8357954-11.9939294-8.6469527-4.3792764.2756082-7.50773 4.6432329-8.8680156 6.9601283 1.2023137-.4511808 3.0238163-.9531451 5.1805648-.9531451zm25.7105654 180.0477041c-7.5402385 0-15.1467644-.936558-21.8247608-3.511453-15.8048116-6.0889-9.1235135-23.819695-.6641424-46.269006 5.050784-13.405277 10.7758693-28.599456 12.6103246-43.870193 2.466597-20.537916 4.6296949-57.819032-.0665412-70.4237694-2.8404469-7.6236296-6.7272674-12.3727675-11.5522683-14.1154791-5.5089534-1.990759-10.3334464.7410799-10.3811936.7688959-.2107985.1217269-.4741697.0934005-.6542374-.0706884-.1795597-.1635786-.2336562-.424896-.1335904-.6469138.1582259-.3516556 3.9510759-8.6199022 10.573452-9.0366321 3.3255375-.2095132 7.202707.7510324 12.9818888 9.1279911 5.1505959 7.4656653 6.9063192 14.4094612 7.9552325 18.5581308.2194336.8674.4088982 1.616646.5871882 2.196699.345151 1.122849 1.387969 1.882558 2.587489 1.862142l9.109545-.201602c.847257-.017864 1.614767-.426938 2.105191-1.120041.489409-.691828.620967-1.552083.360898-2.360279-4.218511-13.1118054-8.497976-21.6546394-11.741225-23.4374162-.249657-.1372938-.35658-.440718-.248895-.7053529.108193-.264635.398739-.404991.669984-.3271572l2.900638.8288662c3.17036.9056792 7.209819 3.9820284 9.196405 7.0037663 7.635479 11.6120377 17.496787 34.7044338 22.275311 64.6895868.115812.681365 11.580459 69.116417 3.732404 103.891539-.042668.188843-.180322.344511-.363183.405757-.269721.094421-19.905478 6.762609-40.015914 6.762609z" fill="#000"></path><path d="m93.5836384 220.63931c-2.6913195 8.639277 6.6908066 13.675695 18.9045946 13.599845 16.22518-.098604 19.613902-8.512861 19.940944-13.736375.326789-5.223513-1.029257-26.58278-1.029257-26.58278s-13.989592 4.045316-30.572468.672534c0 0-1.9893568 9.180338-7.2438136 26.046776" fill="#090b0d"></path><path d="m101.771633 194.878664c-.503013 2.239788-2.6248533 11.327811-7.1095672 26.055254-.8225382 2.701148-.4861027 5.108468.9994635 7.157526 2.7515533 3.791402 9.2394847 6.023457 17.3015717 5.971909 16.697602-.105675 19.071328-9.456596 19.316651-13.472234.287724-4.698657-.758684-22.598918-.983563-26.341348-2.950941.744878-15.310973 3.456335-29.524556.628893zm10.923934 40.321336c-8.308166 0-14.9967474-2.397011-17.9264879-6.433269-1.6839446-2.322265-2.0877682-5.144553-1.1675551-8.16788l.5302709.167534-.5302709-.167534c5.1659139-16.96723 7.18478-26.410938 7.204466-26.503726.064612-.304137.355617-.497444.65369-.435586 16.199132 3.368703 30.056088-.636625 30.194145-.677864.16153-.046394.335931-.018042.473988.082478.137805.097942.224375.255165.234975.427853.055021.889214 1.349276 21.869505 1.025207 27.171281-.265009 4.332662-2.784869 14.423306-20.417828 14.534136-.091617 0-.183235.002577-.2746.002577z" fill="#000"></path><g fill="#090b0d"><path d="m215.288604 101.76c-.240166 0-.462635-.156608-.533421-.398317l-3.5317-11.9945747c-.088482-.2935761.080898-.601252.376681-.687361l24.153088-7.0571577c.295783-.0863607.604207.082584.690161.3756566l3.534228 11.9945748c.085954.2935762-.083426.6015038-.379209.6876128-.293255.0868643-.604206-.0820805-.69016-.3756566l-3.374961-11.4633178-23.086247 6.7452016 3.374961 11.463318c.088482.293576-.080898.601252-.376681.687361-.050562.015358-.103651.02266-.15674.02266"></path><path d="m239.423299 94.08c-.248077 0-.477876-.1606373-.550994-.408308l-3.648049-12.3034732c-.091397-.3011304.083563-.6167233.389091-.7050479.305527-.088583.624111.084709.712897.3853228l3.65066 12.3032151c.088786.3011303-.086174.6167232-.391701.7053061-.052227.0154956-.107065.0229851-.161904.0229851"></path><path d="m234.625761 96c-.248136 0-.477989-.1606377-.551124-.4085672l-3.651522-12.3032438c-.088806-.301131.086195-.6167246.389183-.7050495.305599-.0883249.624258.0839345.713065.3850655l3.651522 12.3035021c.088806.301131-.086195.6167246-.389183.7050495-.054851.0157539-.109702.0232434-.161941.0232434"></path><path d="m229.825761 96.96c-.248136 0-.477989-.1603785-.551124-.4083067l-3.651522-12.3034366c-.088806-.3011295.086195-.6167214.389183-.7050458.305599-.0885827.624258.0841923.713065.3853217l3.651522 12.3034366c.088806.3011294-.086195.6167214-.389183.7050458-.054851.0154955-.109702.022985-.161941.022985"></path><path d="m224.065761 98.88c-.248136 0-.477989-.1606354-.551124-.4083033l-3.651522-12.3033316c-.088806-.3011269.086195-.6169744.389183-.7050398.302987-.0888402.624258.0839333.713065.3850602l3.651522 12.3033316c.088806.3011269-.086195.6169744-.389183.7050398-.054851.0157537-.109702.0232431-.161941.0232431"></path><path d="m219.265761 99.84c-.248136 0-.477989-.1606366-.551124-.4083061l-3.651522-12.3034182c-.088806-.301129.086195-.6164622.389183-.7050448.305599-.0885825.624258.0839339.713065.3853212l3.651522 12.3031599c.088806.301129-.086195.6169787-.389183.7050448-.054851.0157537-.109702.0232432-.161941.0232432"></path><path d="m235.646796 81.6-47.486796 14.1116744 1.473204 5.0883256 47.486796-14.1116744z"></path></g><path d="m179.522171 107.150472c1.016432-.607079 2.116096-1.211598 3.291425-1.787939l7.914556-3.511329c1.480511-.55047 3.097219-.421626 4.537375.225414 2.363269 1.0597 5.039287.955702 7.286536-.227975l3.452844-1.779999c.537222-.2868899 2.403624-.8739898 1.480512-2.3245773-.696118-1.0976104-1.667152-.7295203-6.398734.4603047-1.742816.4380196-3.041732-2.4987606-.592709-4.8097619 1.947112-1.8381452 6.244882-2.9175688 7.094851-3.4629159 2.093398-1.3424915-.572531-3.798987-4.645828-4.3281966-6.913256-.897812-11.228681 2.0735487-12.794946 4.7252319-1.092097 1.849672-4.711405 3.5932971-6.731659 4.2544248-1.73525.5678885-3.65714 1.3665698-5.48571 1.8286676-8.098673 2.0453719-2.638185 13.2694307 1.591487 10.7386507" fill="#fff"></path><path d="m178.971541 106.108935.286342.480525-.286342-.480525c1.109255-.645784 2.254626-1.250889 3.405156-1.797518l8.115623-3.494356c1.627768-.587816 3.425793-.503406 5.097416.224754 2.246887.978592 4.785276.901302 6.962512-.211278l3.53672-1.7690433c.069651-.0363572.170257-.0823757.288922-.1347504.366312-.1642428 1.049923-.4695921 1.158269-.8308755.041275-.1400895-.010319-.3216211-.1522-.539764-.405007-.6168005-.975113-.524255-4.749161.4057764l-1.184066.2911115c-.928679.2262789-1.847039-.2077188-2.339755-1.1054611-.637177-1.1641919-.510774-3.0445944 1.209862-4.6214274 1.454931-1.3312315 4.057811-2.2650766 5.781027-2.8828941.68877-.2468728 1.338846-.4800162 1.560697-.6170548.559787-.3498423.492715-.6523949.466919-.7660428-.180577-.8085019-2.017297-2.1275296-4.98907-2.502288-6.740662-.8504525-10.963572 1.8511643-12.529428 4.4228614-1.207282 1.9848976-4.965853 3.7592796-7.197262 4.4673544-.61654.1960236-1.256296.4200142-1.908951.6478186-1.22792.429167-2.497115.8730803-3.737933 1.1776669-2.123064.5201871-3.420635 1.7253126-3.753411 3.4852026-.435964 2.3220276.905462 4.8738936 2.401667 5.9061316.619119.429676 1.565856.818672 2.556447.244076zm-1.042185 1.411065c-.717146 0-1.45493-.246619-2.166917-.737313-2.07663-1.436489-3.335506-4.523543-2.863427-7.0281191.412746-2.191091 2.043094-3.7417367 4.591802-4.3669273 1.189225-.2911115 2.432623-.7256177 3.634746-1.1458862.662974-.231618 1.313049-.4591681 1.939907-.6584968 2.138542-.6780738 5.590132-2.3606731 6.572984-3.9781854 1.741273-2.8605204 6.358871-5.8761309 13.646422-4.9567778 3.098176.3902675 5.60045 1.8076883 5.953864 3.3695208.098027.4423878.105766 1.2841959-.969953 1.9538796-.325038.2013627-.933839.4200142-1.777389.7225668-1.638086.587308-4.111984 1.4743719-5.396657 2.6515303-1.279513 1.1692768-1.416235 2.484745-.985431 3.2698563.247647.4482355.644916.6541747 1.067981.5514594l1.181486-.2903488c4.024275-.9913047 5.105155-1.2577544 5.977081.0729685.330197.5036611.428224.9953727.288922 1.4614054-.255386.8529949-1.209862 1.2793653-1.779968 1.5341197-.092868.0416963-.172837.0777996-.234749.1098346l-3.539299 1.770822c-2.481637 1.267162-5.37602 1.355385-7.937626.238991-1.403337-.610953-2.902122-.684938-4.21775-.210007l-8.06403 3.470965c-1.101516.526289-2.22109 1.118682-3.304549 1.746669-.515933.297468-1.060242.447473-1.61745.447473z" fill="#000"></path><path d="m166.933522 141.288519c-.18266-.566434-.565241-1.045146-1.036447-1.418591-1.793107-1.42611-8.008439-6.180647-13.987525-8.601777-7.083546-2.867259-15.675519-1.210565-17.409629-1.017576-4.298304.478712-2.682189 4.581599-2.682189 4.581599.680917 1.990038 2.02652 2.355965 2.990831 2.396066.279786.010026.558285-.015038.831373-.077697 1.671506-.368432 10.087001-1.76196 14.577241 6.453839 0 0 2.149925 3.548985 3.869608 1.859709 1.078956-1.057678-.511139-2.711866-1.044434-3.854759-.238566-.511295.318431-.959931.764389-.611549 1.400994 1.090261 3.286849 2.330902 5.02946 2.721891 4.043509.91231 8.994391.338357 8.097322-2.431155" fill="#fff"></path><path d="m139.291455 136.775972c3.456398 0 8.663046 1.105827 11.898933 7.002742.433844.710712 1.439482 1.905999 2.23871 2.000429.162563.01988.412306.012425.713843-.28329.466409-.454756.045128-1.220138-.601023-2.2539-.209999-.335475-.40846-.651071-.551537-.956726-.219486-.469666-.097692-.986547.303076-1.289718.389999-.29323.922305-.280805 1.323842.029821 1.804609 1.401542 3.45768 2.298629 4.780239 2.594344 3.066143.688346 6.224594.434876 7.189975-.576521.29205-.305655.356665-.668466.203846-1.138132-.135897-.419966-.429743-.815081-.850254-1.148072-1.746404-1.381662-7.901254-6.073351-13.78149-8.44653-6.178184-2.49246-13.520978-1.461183-16.285584-1.073522-.321537.047215-.578203.082005-.760254.101885-1.047688.116795-1.767942.477121-2.140505 1.073522-.683844 1.090917-.073077 2.71611-.066666 2.733505.601536 1.749443 1.699737 1.990489 2.474093 2.022794.220769.007455.449486-.012425.677947-.062126.523075-.116795 1.707943-.330505 3.232809-.330505zm14.235078 10.104028c-.078461 0-.157692-.00497-.237948-.01491-1.606148-.19383-2.935887-2.311054-3.08204-2.5521-4.289985-7.815339-12.328162-6.485861-13.897644-6.140446-.325896.072066-.655126.101886-.97615.089461-1.688456-.072066-2.894349-1.021337-3.487937-2.748415-.025641-.06461-.814612-2.104799.163846-3.667867.563075-.899572 1.564353-1.436333 2.976656-1.592888.174102-.01988.41923-.05467.726664-.096915 2.848708-.400086 10.415861-1.463668 16.881223 1.145587 6.021261 2.427849 12.285085 7.204028 14.061233 8.608056.59128.46718 1.010766 1.043701 1.212816 1.664952.347948 1.073522-.053589 1.794174-.451793 2.211654-1.421534 1.488518-5.238443 1.580463-8.272535.899572-1.452303-.328021-3.138707-1.215167-5.015624-2.64156.108718.198801.241282.412511.37923.631191.658459 1.053642 1.560507 2.49246.437691 3.590832-.413076.405056-.898972.613796-1.417688.613796z" fill="#000"></path><path d="m124.670363 144.801668c1.586709-.371803 7.145539-1.657833 8.118761-2.067835 1.918164-.809818 2.757887-1.693486 3.395831-3.672191 1.193598-3.70275 1.237928-5.966674.941885-7.331649-.244579-1.128142-1.216782-1.948146-2.370126-2.021997-5.352467-.333604-30.151794-1.696033-33.078339-4.619524-3.3560869-3.35132-3.3560869-8.3783-7.8864099-22.789739-4.530323-14.4116944-10.9064557-18.4335329-10.9064557-18.4335329s-13.2526341-6.1866995-13.7588624 8.3788089c0 0-.5650802 15.423202 8.7251136 34.352047 6.1506612 12.534344 15.8716713 25.415025 46.8186024 18.205612" fill="#fff"></path><path d="m77.5476041 82.725819c-1.2996293 0-2.6409443.2468455-3.8043323.9599547-2.1811302 1.3365719-3.3587524 4.0803156-3.5005856 8.1547901-.0047193.1536435-.4440549 15.4730482 8.6482664 33.9940792 6.5413571 13.322547 16.6519288 24.709946 46.0813004 17.853127l.18784-.043173c4.598649-1.069156 7.230188-1.7396 7.821923-1.988478 1.776981-.749171 2.495044-1.523737 3.073306-3.316669 1.209649-3.753473 1.171014-5.891785.925475-7.021891-.189365-.87107-.951401-1.521198-1.853237-1.577068l-.973514-.05841c-20.105491-1.226609-30.397294-2.722411-32.388805-4.710889-2.2825486-2.277988-3.0537348-5.190866-4.5902611-10.996307-.818464-3.090648-1.8372228-6.938085-3.4161974-11.959055-4.2384741-13.4774597-10.1608996-17.7462108-10.6191886-18.0598468-.3291649-.1460248-2.8681824-1.2301642-5.5919898-1.2301642zm31.3799589 64.154181c-18.0303542 0-25.6868049-9.647799-31.040881-20.555221-9.2234788-18.787686-8.766682-34.3686651-8.7616312-34.5238324.1555589-4.4739477 1.5139041-7.5259943 4.0374166-9.0700485 4.274822-2.6167655 10.2338497.1112329 10.4854892.2285607.0210971.0099043.0416857.0213323.0615119.0337762.2668904.168373 6.5868556 4.2857661 11.1163673 18.687373 1.5866 5.043825 2.6089175 8.9065 3.4301774 12.009846 1.4851817 5.609894 2.2304418 8.42373 4.2997318 10.490934 1.194907 1.191055 7.658738 2.920497 31.666421 4.383285l.975294.06095c1.39876.086345 2.581466 1.097091 2.876062 2.455757.399828 1.838643.078542 4.395983-.953942 7.600911-.681715 2.112917-1.616085 3.123663-3.70266 4.002351-.878197.370776-4.988055 1.345969-8.003154 2.049427l-.187586.043173c-6.226426 1.45009-11.6138 2.102758-16.298617 2.102758z" fill="#000"></path></g></svg>