<svg xmlns="http://www.w3.org/2000/svg" height="264" viewBox="0 0 180 264" width="180"><g fill="none" fill-rule="evenodd" transform="matrix(-1 0 0 1 180 .617095)"><path d="m129.641708 235.534706s1.609226 10.912813-1.415148 14.547721l-.931976 1.13414 14.571981-.709595s-4.156491-8.35746-3.64906-12.799003z" fill="#fff"></path><path d="m130.169356 236.127046c.299203 2.458315 1.109881 10.979527-1.601139 14.238411l-.293137.35783 12.900085-.626708c-.921868-1.967056-3.653104-8.149231-3.430724-12.048975zm-2.874772 15.534282c-.167796 0-.321441-.092995-.398263-.244618-.078844-.157688-.056606-.345701.054584-.481151l.931976-1.136161c2.866686-3.444875 1.334283-14.092853 1.31811-14.2-.020217-.145558.032346-.295159.143536-.39422.109169-.09906.260792-.137471.40635-.101082l8.577818 2.173263c.214294.054585.357831.260792.331549.481151-.487215 4.259595 3.564152 12.469475 3.604584 12.550341.066715.13545.06065.293138-.014151.424544-.076822.129385-.212272.210251-.361874.218337l-14.571981.709596c-.008086 0-.016173 0-.022238 0z" fill="#000"></path><path d="m128.578326 246.601163c-1.000712 1.308001-1.797238 2.765604-2.322865 4.32631-.913781 2.719106-.618622 5.933513-.202164 8.535364.305268 1.900341 1.942796 3.299316 3.867398 3.313468l9.742283.06279c1.829584.014032 3.422636-1.23332 3.863354-3.00832.432631-1.75074.812699-4.075626.636816-6.485421-.232488-3.202278-.780353-4.219162-3.149715-6.877619-.264835-.29516-.721725-.309311-.988582-.016173l-.576167.964322c-.250683.41848-.859197.404328-1.091686-.02426l-.944106-1.744675c-.220358-.404328-.648946-.650968-1.107858-.634795l-2.79795.101082c-.513497.018195-.958257.35783-1.111902.849089l-.464977 1.49197c-.14758.475086-.76418.596384-1.081578.212272l-.978473-1.176594c-.380069-.351765-.978474-.299203-1.291828.11119" fill="#fff"></path><path d="m129.275791 246.702245c-.012129 0-.024259 0-.038411 0-.12332.01213-.230467.070758-.307289.169818-.994647 1.299914-1.752762 2.713041-2.252107 4.196925-.921868 2.743365-.547864 6.06492-.183969 8.323091.2709 1.690091 1.714351 2.925314 3.430723 2.939465l9.740261.062671h.026282c1.61529 0 3.012243-1.095729 3.40242-2.670587.549886-2.21976.766201-4.41324.626708-6.345928-.230467-3.167909-.782374-4.081691-3.038525-6.614806-.06267-.068735-.12332-.078844-.175882-.078844-.034368 0-.084909.008087-.129385.044476l-.545843.915803c-.200142.333571-.570103.523605-.944106.521584-.390176-.008087-.733855-.218338-.919846-.562016l-.946128-1.746697c-.139493-.256749-.404328-.410393-.699487-.400285l-2.79795.101082c-.323462.010108-.606492.226424-.703531.535735l-.464977 1.49197c-.117255.376025-.428588.657033-.814721.731834-.386133.078843-.782374-.062671-1.033058-.365917l-.956236-1.152335c-.078843-.062671-.173861-.097039-.274943-.097039zm10.417511 16.581491c-.012129 0-.022238 0-.034367 0l-9.742284-.06267c-2.151025-.016174-3.962414-1.566771-4.30205-3.687472-.378046-2.353189-.76418-5.81828.220359-8.747636.531691-1.576879 1.334283-3.076936 2.389579-4.455695.226423-.293137.566059-.48115.936019-.513496.367938-.030325.737899.095017 1.01082.3457.014151.014152.028303.028303.042454.042455l.976453 1.178616c.060649.072779.137471.070757.175882.062671.040433-.008087.11119-.034368.139493-.125342l.464978-1.49197c.21025-.669163.820785-1.136162 1.520273-1.160422l2.79795-.09906c.644903-.02426 1.212984.309311 1.514208.865262l.946128 1.746697c.042454.080865.117255.095017.155666.095017.034368.002022.113212-.008087.161731-.088952l.576167-.964323c.014152-.026281.032347-.050541.052563-.072779.210251-.228445.509453-.355808.818764-.355808.315376.002021.618622.139493.830894.378046 2.385535 2.67463 3.018309 3.794619 3.262927 7.140433.149602 2.053986-.070757 4.283855-.650968 6.622893-.489237 1.975142-2.239977 3.347835-4.263639 3.347835z" fill="#000"></path><path d="m135.643957 259.074682c-1.696155 0-3.289208-.177904-3.824942-.244618-1.825541-.228446-3.687472-3.281122-3.893679-3.626823-.125342-.212272-.056606-.485193.153645-.610535.212272-.125342.483172-.056606.610535.155666.499345.838981 2.056008 3.050655 3.238667 3.198235 3.0082.376025 6.715888.378047 7.746925-.507432 1.342369-1.150313 2.037813-3.30336 2.045899-3.325598.074801-.23451.325484-.363895.557973-.289094.23451.074801.363895.325484.289094.559994-.032346.097039-.782374 2.417882-2.312756 3.729926-.885478.758115-2.806036.960279-4.611361.960279" fill="#000"></path><path d="m80.7240852 233.393789s-1.2230922 9.378388-4.9914291 12.641315l-1.263525 1.451537 16.0538432.600428-.7136389-1.643594c-1.1381833-3.089066-1.8599088-7.423462-.7298121-11.123063z" fill="#fff"></path><path d="m75.4152586 247.076249 14.4183365.539777-.432631-.994646c-1.386845-3.764294-1.7022209-7.813639-.8773918-10.971441l-7.429527-1.71435c-.3093109 1.99738-1.667853 9.459253-5.0460134 12.412869zm15.1077157 1.45558c-.0060649 0-.0101082 0-.0161731-.002021l-16.0538433-.598406c-.1718394-.006065-.3234624-.11119-.3921981-.266856-.0667141-.157688-.0404328-.339636.072779-.469021l1.263525-1.453559c.0141515-.016173.028303-.030324.0444761-.044476 3.5985192-3.115347 4.829698-12.267311 4.8418278-12.360307.0161731-.125342.0849089-.236532.1859909-.307289.1031036-.072779.2324886-.097039.353787-.068736l8.3554381 1.926623c.1212984.028303.224402.103104.2850512.210251.0626709.107146.0768224.23451.0404328.353787-.9279327 3.036503-.6590546 7.089891.7217255 10.838012l.7055524 1.619333c.0606492.139493.0444761.301225-.0404328.428588-.0828873.121298-.2203588.194077-.3679385.194077z" fill="#000"></path><path d="m73.7251675 244.573458c-2.9839406 3.568195-6.7886671 6.358058-11.090717 8.129015l-3.3033598 1.358542c-.3153758.129385-.5458428.406349-.6145785.73992l-.0363896.169818c-.3942198 1.882147 1.8882118 6.073006 8.7516796 7.316315 4.245444.766201 14.1231771 1.031036 25.8790137-3.897722.7419418-.311333 1.1968108-1.067426 1.1179669-1.870017-.2870729-2.92127-1.2392653-9.879755-3.9967823-13.253872-.3052676-.376025-.8632403-.414436-1.2069191-.072779l-3.2892083 3.301338c-1.4778188 1.481862-3.8754838 1.481862-5.351281-.002021l-3.7663154-3.788554c-.4467824-.446782-1.1806377-.416458-1.5869874.068736z" fill="#fff"></path><path d="m75.5729465 243.057228-1.5061218 1.801281c-3.0183085 3.61065-6.9119872 6.463184-11.2625565 8.254357l-3.3033597 1.360563c-.179926.072779-.3093109.230467-.3497437.41848l-.0343679.169818c-.1091686.519561.0343679 1.459624.7682232 2.549288.8187642 1.215005 2.8970101 3.382203 7.6256261 4.237357 1.9144931.3457 12.1399482 1.785108 25.6283303-3.869419.5660592-.238553.9077163-.806634.8490888-1.415148-.2789864-2.818166-1.212984-9.728132-3.8997436-13.01734-.0707574-.084909-.1718394-.137471-.2789863-.143536-.0990604-.004044-.1960991.032346-.2688781.105125l-3.2892083 3.301338c-.7985478.80057-1.8599088 1.241287-2.9900056 1.241287h-.0020216c-1.1300968-.002022-2.1934794-.442739-2.9900056-1.24533l-3.7663153-3.788554c-.1273633-.125341-.2971811-.192055-.4750854-.183969-.1779043.008087-.3396355.086931-.454869.224402zm-2.5978074 20.097123c-2.90914 0-4.880239-.295159-5.6221808-.430609-5.0500568-.913781-7.3102503-3.285165-8.2058368-4.617426-.7641799-1.13414-1.0937073-2.310734-.9016515-3.226537l.0343679-.169818c.101082-.479128.4306093-.873348.8814351-1.059339l3.3053814-1.360564c4.217141-1.736589 7.9915429-4.502192 10.916856-8.001651l1.5061218-1.801281c.2729214-.327506.6752277-.523605 1.0997721-.543821.4265661-.018195.8430239.145558 1.1442483.446782l3.7663153 3.788553c.62873.632774 1.4677106.980496 2.3592539.982517h.0020216c.8915433 0 1.7305239-.347722 2.3592539-.980495l3.2912299-3.301338c.2466401-.248662.5923405-.380068.9420843-.363895.3578302.018194.6954441.188012.9238894.46902 2.8404042 3.477221 3.8087698 10.593394 4.093821 13.492426.0990604.99869-.4589122 1.932687-1.3888666 2.322864-8.5070612 3.566173-15.7586838 4.354612-20.5075162 4.354612z" fill="#000"></path><path d="m76.6262209 256.992393c-.4669988 0-.8935648-.212272-1.1745728-.588297-.2850512-.38209-.3679385-.863241-.224402-1.31811l.4225227-1.342369c.078844-.250683-.0788439-.414436-.1293849-.458912-.050541-.042454-.2345103-.177904-.4730638-.064692l-1.2898063.614578c-3.9280465 1.867995-8.5111044 2.049943-12.5746008.495302l-.7500285-.287073c-.2284453-.086931-.3436788-.3457-.2567483-.574146.0889522-.230467.3436788-.343679.5741458-.256748l.7500284.287073c3.8370728 1.46771 8.165404 1.297893 11.8751134-.466999l1.2898063-.614579c.483172-.228445 1.0330581-.153644 1.4373861.1961.404328.351765.555951.887499.3942198 1.396953l-.4205011 1.342369c-.056606.177904-.0242597.367938.0889521.519561.1111902.149602.2890945.230467.4730638.230467 4.9469531-.092995 9.7321749-1.192767 14.2222374-3.268992l2.5816343-1.192767c.224402-.105126.4872152-.006065.5903188.216315.1031037.222381.006065.487215-.2183371.590319l-2.5796126 1.192768c-4.6032743 2.128787-9.5077729 3.256862-14.5800677 3.351879-.0080866 0-.0181948 0-.028303 0" fill="#000"></path><path d="m137.433109 125.935536c3.252819 6.800797 1.708286 17.776281-5.769761 19.286446-14.909595 3.0082-42.6990581-.01213-49.5503961-4.914607-10.2032171-7.300142-6.2145214-19.690773-6.2145214-19.690773s7.0070043-14.70541 38.0492865-11.36566c11.452591 1.2332 19.539151 8.436303 23.485392 16.684594" fill="#090b0d"></path><path d="m82.786158 114.096813s-4.8034166 53.567395-4.3162014 66.253186c.4872153 12.687812.1051253 56.189462.1051253 56.189462s6.6653471 1.093707 11.8407455.733855c0 0 20.1597936-75.174683 20.6348796-96.098657.473064-20.923974-6.645131-35.053216-6.645131-35.053216z" fill="#000"></path><path d="m90.6058615 110.279956s34.6630395 94.337809 37.3376695 128.857312c0 0 3.26697 1.607204 11.992368-.400284 0 0 1.150313-106.91241-16.852391-132.439659z" fill="#090b0d"></path><path d="m101.951305 22.6566202c-1.75074-1.2026736-4.9792991-2.0262897-8.2280746-5.7649086-1.5829441-1.8202846-3.8714406-4.4514491-3.6308654-7.9640486.2810079-4.10291838 4.0533882-7.42022746 8.3150053-8.53819438 4.4637807-1.17133822 9.8696467.47326592 12.1096237 2.62146059 2.607915 2.50157733 1.657745 4.59720936 4.41324 7.09150879 3.556065 3.219866 12.932431-5.34137504 26.01042 6.138912 6.283257 5.5156404 3.372096 14.9910671 8.945757 19.2445977 6.400513 4.8856974 12.857631-1.2336047 20.705637 3.1123148 7.205125 3.9907173 11.268622 14.4163148 8.56771 20.7830657-1.872038 4.4110163-5.555466 3.4952134-9.459253 8.4805776-6.083115 7.7671409-.48115 15.8860471-4.67201 22.7636664-5.616116 9.2146351-23.335791 8.642511-33.868535 6.2367594-1.950883-.4467824-22.302733-5.4038437-28.949885-22.1046118-8.0643218-20.2616847 8.788069-45.8861739-.25877-52.1010996" fill="#090b0d"></path><path d="m157.119839 72.4308122c.088952-3.0142652-.218337-6.2064348-1.336304-9.0064062-3.137585-7.8564974-12.346155-15.3339372-20.901736-20.709478-22.343165-14.0390768-46.3440752-6.5244388-55.0917115 2.5600027-3.285165 3.4107089-6.6532172 9.8490258-8.7537012 14.0077414-2.6443051 5.2374628-8.794134 7.7928157-8.794134 7.7928157-5.1794417 2.5998291-6.1781318 12.3562637-.6812927 16.6502271 3.543935 2.7656035 8.3311785 3.3741171 12.4351077 1.5425113 6.3277332-2.8282744 5.9678813-5.5736615 8.3938493-8.5495156.4124145 4.9550397.4467824 5.2138096.4184795 7.7024484-.0444761 3.8208996-.1111902 7.2718391-.3861333 10.2416283-.729812 7.8560927-5.581748 22.7272767-6.6552389 28.4667127-.0181947.095017.1475798.113212.4083713.082887 2.173263-.238553 4.3728073.068736 6.4510533.748007l2.4805522.810678c4.0068905.992625 11.1857342-9.285393 11.1857342-9.285393l3.2811217 10.690433s8.9942764 1.51623 12.5018214.202164c6.066942-2.272324 6.916031-10.947181 11.626452-11.084653 8.557602-.248661 14.329384 14.371839 14.307146 14.058485-.032346-.485194-7.900569-36.0620143-9.020557-42.2199297-1.308002-7.1909735-1.849801-18.4130971.917824-17.4467532 0 0 4.627534 3.0223518 4.734681 3.0910875 2.357232 1.544533 3.0082 4.7225511 1.613269 7.1707571l-5.318935 7.4376136 15.214863 11.6689061 6.578416-10.7874711c2.666543-4.8681091 4.231293-10.2861043 4.391002-15.8355061" fill="#fff"></path><path d="m99.9175354 125.781892c1.5142086.23451 8.9801246 1.312044 12.0024766.179926 2.892967-1.083599 4.599231-3.78451 6.103331-6.166002 1.580923-2.504812 3.074915-4.870131 5.666657-4.946953 4.603274-.129385 9.200484 3.822921 13.173006 11.214037-.446782-2.068138-1.065404-4.908542-1.730523-7.965262-2.476509-11.37779-5.8668-26.9605909-6.580439-30.8866158-.865262-4.7548972-2.011531-15.8152897.210251-17.7156313.36996-.3153758.814721-.3962414 1.289806-.2304669.034368.0121298.066714.0283029.097039.0485193l4.734681 3.0910876c2.525028 1.6537015 3.297295 5.0642082 1.756805 7.7630976-.008087.0141515-.016173.0262813-.02426.0384111l-5.068251 7.0878699 14.481007 11.1048685 6.321668-10.3629266c2.670587-4.880239 4.170644-10.2861044 4.324288-15.617169.101082-3.4408313-.337613-6.4106205-1.303957-8.8285019-3.469135-8.6835503-14.474943-16.5703723-20.725854-20.498621-12.520016-7.8666055-24.504298-8.3261243-32.352305-7.3268277-8.9497999 1.1400028-17.4487745 4.9022749-22.1834553 9.8187012-3.0910876 3.2097578-6.2589975 9.1141596-8.6768789 13.8995836-2.6867596 5.3241912-8.7617878 7.8957172-9.0185361 8.0028642-2.1671981 1.0896639-3.7258825 3.7359907-4.0372151 6.895814-.3578302 3.6005408.9683656 7.047437 3.4590261 8.9922547 3.4347663 2.6827163 8.0238892 3.2528188 11.978217 1.4879271 4.3849372-1.9589692 5.4442765-3.8532459 6.5683084-5.8587128.4649772-.8288724.9461275-1.6860477 1.6638097-2.5654611.1152335-.1415148.303246-.1981207.477107-.1435365.1718394.0525627.2951595.2062073.3113326.3861333l.0586275.7035307c.3578303 4.3040716.3861333 4.6558369.359852 7.0433938-.0404328 3.509567-.1031037 7.1970384-.3881549 10.2780177-.4629556 4.9873859-2.605894 12.8899763-4.3263096 19.2399483-.9683656 3.574259-1.8154327 6.695671-2.2460421 8.808285 2.0822892-.204186 4.2575739.060649 6.4732913.784396l2.4785307.810678c3.0203301.748007 8.7355064-6.327733 10.6823457-9.117596.0970387-.139494.2668565-.210251.4346526-.18397.1677961.026282.3052677.145558.3558087.309311zm38.0634376 4.025085c-.262813 0-.376025-.242597-.562016-.64086-2.347124-5.039948-7.203103-13.429754-13.496468-13.429754-.068736 0-.137472 0-.206208.002021-2.118678.062671-3.426679 2.13283-4.940888 4.532517-1.578901 2.500769-3.370074 5.335108-6.544048 6.523832-3.576282 1.340348-12.3582857-.117255-12.7302675-.179926-.1677961-.028302-.303246-.147579-.3517653-.307289l-3.0183085-9.833257c-1.8295842 2.486617-7.4598516 9.637158-11.1311499 8.729442l-2.5108769-.820786c-2.1530466-.703531-4.2595954-.948149-6.2650623-.72779-.2870729.032346-.5802107.032346-.7702449-.17184-.1091685-.117255-.1536446-.274943-.12332-.434652.4002847-2.140917 1.3039578-5.474602 2.3491457-9.335934 1.7123291-6.317625 3.8431376-14.1777613 4.2980066-19.0903465.2830296-3.0486331.3457005-6.7138665.3861333-10.2052387.0262813-2.2541286 0-2.6624999-.3173975-6.475313-.331549.50541-.6125569 1.0067768-.8875 1.4980353-1.1442482 2.0418564-2.3289293 4.1544702-6.9807229 6.2327161-4.2535306 1.9003416-9.1944187 1.2898063-12.8899767-1.5970956-2.7696468-2.1631548-4.1908597-5.8203016-3.7966399-9.782716.3416572-3.459026 2.0863325-6.3762525 4.5507117-7.6155178.0889521-.0384112 6.0608767-2.5715261 8.5980349-7.5950994 2.4441628-4.8410191 5.6545271-10.8204237 8.8285019-14.1154948 4.8681091-5.0559195 13.5712693-8.91988 22.7111042-10.0841425 7.993564-1.0180979 20.196183-.5508969 32.93858 7.4560105 7.748946 4.8687156 17.695415 12.4506743 21.07964 20.9221546 1.01082 2.5310932 1.469733 5.6221808 1.366629 9.1822888-.157688 5.4725795-1.696156 11.017938-4.445586 16.0376702l-6.588525 10.8036441c-.064693.1071469-.173861.1819476-.297181.2062073-.125342.022238-.252705-.0080866-.351766-.0849089l-15.216884-11.6689061c-.190034-.145558-.230467-.4164578-.090974-.6105352l5.304784-7.4173972c1.293849-2.2905181.644903-5.1673118-1.481862-6.5602218l-4.682119-3.0587413c-.149601-.0404328-.260791-.0161731-.374003.0828872-1.453559 1.2433086-1.148292 10.0940485.084909 16.8786724.711617 3.9118734 4.099886 19.4865883 6.576395 30.8562913 1.805324 8.300854 2.438098 11.222124 2.452249 11.414179.014152.214294-.125342.412415-.333571.466999-.050541.01213-.097038.018195-.139493.018195z" fill="#000"></path><path d="m136.17767 113.041517-13.039578-1.730524-1.295871-5.304784 13.06586 1.825541z" fill="#fff"></path><path d="m123.497944 110.908686 12.093451 1.607204-1.045188-4.285877-12.115689-1.694134zm12.679726 2.577591c-.020216 0-.040432 0-.058627-.004043l-13.039578-1.730524c-.181948-.024259-.329527-.157688-.374004-.335592l-1.295871-5.304783c-.034368-.143537.004043-.29516.103104-.404328.09906-.109169.242597-.161732.390176-.141515l13.06586 1.825541c.179926.024259.327505.157688.36996.335592l1.26959 5.209766c.036389.143537-.002022.293138-.101082.402307-.084909.095017-.204186.147579-.329528.147579z" fill="#000"></path><path d="m76.9254237 112.151995 13.0375563-.841002 1.2958713-5.304784-13.0638377.93602z" fill="#fff"></path><path d="m78.5488006 107.36273-1.0492312 4.308115 12.1096236-.782375 1.0734909-4.395045zm-1.6233769 5.234026c-.1314066 0-.2567483-.056606-.3416572-.157688-.0909738-.109169-.1253417-.254727-.0909738-.392198l1.2695899-5.209767c.0444761-.188012.2082289-.325484.4002847-.339635l13.0658594-.936019c.1415148-.008087.2789863.048519.3699601.157687.0929954.107147.1273633.254727.0929954.392199l-1.2958712 5.304783c-.0464977.188012-.2082289.325484-.4023064.337614l-13.039578.843024c-.0101082 0-.0202164 0-.0283029 0z" fill="#000"></path><path d="m89.8598764 37.2395182s-1.0168849 15.9119241-.5134966 30.0684582c.4306093 12.0934505-12.9789288 79.7233736-16.8968671 99.1857016-.5680808 2.818166 1.4272778 5.504926 4.2919417 5.777847 11.8164858 1.117967 42.9962396 2.096441 52.1057496-.537756 11.660819-3.374117-5.389692-60.374257-7.029243-84.2336522-1.637528-23.8593953.034368-51.2615125.034368-51.2615125l-4.989407-1.3037557s-1.03508 11.6961982-1.425256 18.108436c-.133429 2.1989378-1.975143 3.8999457-4.17873 3.8643649l-12.6271637-.2039835c-2.1995443-.0355809-3.9826308-1.7883428-4.0513665-3.9856633-.1677961-5.3134764-.3901765-14.4460329-.0262813-17.1447202z" fill="#ffd100"></path><path d="m90.2864424 37.5603525c-.1334282 2.2326992-.9542141 16.8050847-.4953018 29.7314508.4306093 12.0873856-12.8313491 79.0521887-16.9049537 99.2888057-.24664 1.22107.0384112 2.492682.7783314 3.491372.7419419.99869 1.8781036 1.63955 3.1193906 1.756805 10.961332 1.037101 42.7374691 2.140917 51.9399751-.521583 7.431548-2.151025 2.270301-28.881149-2.284453-52.465601-2.324886-12.046953-4.522409-23.4267646-5.064209-31.3111606-1.520273-22.1308931-.175882-47.6142718.01213-50.9536168l-4.128189-1.0785449c-.204185 2.3475284-1.039123 12.0095524-1.378758 17.5718927-.145558 2.4154555-2.138895 4.2826422-4.552733 4.2826422-.026282 0-.050541-.0002022-.076823-.0006065l-12.6271632-.2039835c-2.4401195-.0392198-4.4112185-1.9791855-4.4880408-4.4160704-.1536447-4.8646723-.3578303-13.1311583-.0950171-16.5044668zm15.4069186 136.2840085c-11.2099939 0-23.1012804-.572124-28.994361-1.130097-1.4899487-.141514-2.8565773-.911759-3.7481206-2.112613-.8915432-1.198833-1.2332004-2.729214-.9380409-4.196925 4.0695613-20.212357 17.3153466-87.0902296 16.8887805-99.0805764-.4973234-14.017041.50541-29.9536291.5155182-30.1129343.0101082-.1775.1253417-.3311447.2931378-.3907831l4.6942481-1.6662356c.1475797-.0515519.3093109-.0238554.4306093.073992.1192768.0976452.179926.2508855.1597096.4045301-.3598519 2.6748319-.1354499 11.843778.0303246 17.0713347.0606492 1.9615973 1.6496582 3.523112 3.6126707 3.5550539l12.6291847.2037814c.020217.0004043.040433.0006064.06065.0006064 1.942796 0 3.547978-1.5028871 3.665233-3.4475026.386133-6.344715 1.415148-18.0033107 1.427278-18.1203637.010108-.1303958.078844-.249066.185991-.3244732.107146-.0754072.242596-.0996669.367938-.066512l4.991429 1.3037557c.204186.0535734.343679.2452249.329528.4572949-.016174.2739322-1.649659 27.6479487-.032347 51.204098.537757 7.8298117 2.729214 19.1833418 5.050057 31.2040138 4.851936 25.128985 9.869647 51.111102 1.657745 53.486529-4.32631 1.251395-13.544988 1.684026-23.277163 1.684026z" fill="#000"></path><path d="m89.3463798 127.589238s19.2096232 4.631577 32.1764222 0c0 0 2.452249 23.596582-6.244846 28.505124-6.602676 3.725882-20.5236892 2.545245-23.9523906-2.470444-4.3849372-6.418707-1.9791856-26.03468-1.9791856-26.03468" fill="#090b0d"></path><path d="m89.7325131 128.133059c-.3295274 3.058741-1.9003416 19.589692 1.9609908 25.240176 3.2204725 4.710421 16.7573741 6.062898 23.3661151 2.332972 7.615518-4.298007 6.366144-23.930153 6.070985-27.510477-11.75988 3.91996-28.3474362.60447-31.3980909-.062671zm15.3786159 30.623803c-5.9880981 0-12.0247152-1.766914-14.1514805-4.882261-4.4294132-6.481378-2.1530466-25.531291-2.0539862-26.339947.0141515-.125342.0828872-.238554.1880125-.311333.1031037-.070757.2345103-.095017.3578303-.066714.1900342.046498 19.2318609 4.546668 31.9216959.014151.127363-.046497.270899-.030324.386133.042455.115233.072779.192056.194077.206207.331549.101082.97443 2.381492 23.942282-6.469248 28.935733-2.751452 1.554641-6.560222 2.276367-10.385164 2.276367z" fill="#000"></path><path d="m111.000166 112.958629c-.163753 0-.321441-.090974-.398263-.248661-10.573177-21.6598514-18.5970666-29.4835982-18.6759105-29.5583989-.1779044-.1698177-.1839693-.4528473-.0141515-.62873.1698177-.1779043.4528473-.1839693.62873-.0141515.0808656.0768223 8.205837 7.9834564 18.85988 29.8111034.107146.220359.016173.487215-.204186.594362-.062671.030325-.129385.044476-.196099.044476" fill="#000"></path><path d="m122.990513 94.5718135c.865262-.4851936 2.262215.1192767 3.186104.7783314l1.892255 1.235222 5.149117-7.5043277c.068736-.095017 5.961817 4.5689064 5.887016 4.6578586l-7.383029 7.4376132c-1.13414 1.093708-2.729214 1.591031-4.27779 1.297893-.915803-.171839-1.669875-.479128-2.163155-.721725-1.045188-.511475-2.401709-.758115-2.620046-.794505l-1.409083-.014151c-.721725-.006065-2.674629.23451-4.380894.46902-.371981.050541-.73992-.006065-1.08562-.12332-1.138184-.386133-1.28172-1.9387526-.234511-2.5290714z" fill="#fff"></path><path d="m121.221578 100.499262h.034368l1.409083.014151c.024259 0 .048519.002022.070757.006065.266857.044476 1.65168.301225 2.741344.834938.448804.220358 1.168508.51754 2.049943.683314 1.390888.262813 2.846469-.177904 3.885592-1.182659l7.059567-7.1101083c-.980496-.8430239-4.105951-3.3175112-5.130922-4.0594531l-4.906521 7.1505407c-.13545.1981207-.406349.252705-.608513.1212984l-1.894277-1.2352221c-.873349-.6226651-2.090376-1.1179669-2.723149-.7621582l-7.439635 4.188838c-.333571.1880126-.513497.5296697-.477107.9117596.036389.38209.272921.685336.636816.806634.313354.107147.608514.141515.881435.105126 2.29254-.313354 3.776424-.473064 4.411219-.473064zm7.102021 2.50279c-.321441 0-.642882-.030324-.962301-.090974-.978473-.183969-1.779043-.513496-2.276366-.758115-.946128-.464977-2.203588-.705552-2.464379-.75205l-1.372694-.012129c-.557973-.008087-2.05803.155666-4.316201.464977-.412415.056606-.845046.008086-1.287785-.143537-.695444-.23451-1.168508-.834937-1.237244-1.566771-.068736-.7318334.287073-1.4090828.925911-1.7689347l7.439636-4.1908597h.002021c1.045188-.5862756 2.57557.0303246 3.659169.8025911l1.514208.9885819 4.902477-7.1464974c.095017-.1354498.262813-.2102505.428588-.1900341.38209.0485193 6.097266 4.5668847 6.240802 4.9328016.058628.151623.030325.3315489-.0748.454869l-7.407289 7.4638953c-1.014864.978473-2.351168 1.512186-3.713753 1.512186z" fill="#000"></path><path d="m43.645186 87.3646669c-.7277904.1212984-1.5970956.2425968-2.9738325-.0080866l-10.6964972-2.1429384c-.9279328-.1677961-1.5344248-1.0734908-1.342369-2.0014236 0 0 .2587699-1.4980352 1.9023633-1.3120443.6529897.0748006 4.4091968.931976 4.8418278.9016514.6974658-.050541 1.01082-.5822323.7439635-1.2332004-.1354499-.331549-.2506834-.6388382-.3436788-.9056947-.2223804-.6408599-.7722665-1.1098804-1.4353644-1.2372437-1.342369-.2607916-5.3452162-.7843963-5.9213836-1.0047551-.8551537-.3275057-2.1126138-.6732061-2.5755693-1.5121867l-.1192768-.2203588c-.4710421-.8753701.1637528-1.9367311 1.1523348-1.9266229l9.5967251.1738611c1.2311787.0121298 2.4199031.4528473 3.3640089 1.2453302l4.8923688 4.0958426c1.1017938.9238895 2.634197 1.1260535 3.9341115.5215832l11.1897774-5.9840544c3.3336843-1.5708143 5.761674 4.8701307 5.761674 4.8701307.4669988 1.9892938-.8268508 3.9886957-2.7271924 4.4152618z" fill="#fff"></path><path d="m30.2639508 82.3287616c-.9966685 0-1.1745728.8551538-1.1927676.960279-.0707574.3457005-.0060649.6833144.1839692.9623007.1859909.2789863.4710422.4649772.7985478.5256264l10.7045838 2.1429384c1.2574601.2284453 2.0479214.1334282 2.8121013.0060649l19.2439911-3.2649486c.7763098-.173861 1.4960136-.6934225 1.9508826-1.4191913.460934-.7378986.6105353-1.5991172.4245444-2.4279896-.1334282-.3396355-1.5505978-3.8471809-3.5257401-4.6477504-.5478645-.2203587-1.0775341-.2041856-1.6193337.050541l-11.169561 5.9739462c-1.4737755.685336-3.2022777.4568907-4.4314348-.5721241l-4.8903472-4.0978643c-.8632403-.7237471-1.9589692-1.1280751-3.083001-1.1402049l-9.6007684-.1738611c-.297181.0060649-.5741457.151623-.7318336.4124146-.1597096.2648348-.1677962.5862756-.0202164.859197l.1172551.2203587c.3173975.5701025 1.2271355.8996298 1.9589691 1.1644647.1334283.0485193.2628132.0970387.3841116.1435364.3072893.1172551 2.0903758.3881549 3.3943336.5862756.9865603.1496014 1.9185364.2931378 2.454271.3962415.8187642.1576879 1.4980352.7439635 1.7709566 1.5263382.0909738.2607915.202164.5599942.3355922.8854783.1859909.454869.1698178.8996298-.0485193 1.2513951-.2163155.3477221-.5984055.5579727-1.0755125.5923406-.281008.0202164-1.1786161-.1556663-3.0122436-.5316914-.8167426-.1677961-1.6617881-.3416571-1.9124714-.3699601-.078844-.0101082-.151623-.0141515-.2203588-.0141515zm11.9236327 5.6181376c-.4589123 0-.9804954-.0404328-1.5970956-.1536446l-10.7025621-2.1429384c-.5599943-.101082-1.0492312-.4225228-1.370672-.9016515-.325484-.4811503-.4386958-1.0593393-.3194191-1.6274202.1111902-.6469248.7621583-1.8477789 2.3855352-1.6638097.2911162.0343679 1.0815774.1960991 1.9933371.3841116.9986901.2062073 2.5068336.5155182 2.7696468.5155182h.0040432c.179926-.0121298.3173975-.0748007.3780467-.1718394.0626709-.1031036.0566059-.2648348-.0181947-.4467824-.1415148-.3416572-.25877-.657033-.353787-.9299544-.1677962-.4851936-.5903189-.8490888-1.0977506-.9461276-.5195614-.101082-1.4434509-.2405751-2.4219247-.3901765-1.9791855-.3012243-3.2083427-.4953018-3.5762811-.6347949-.1172552-.0444761-.2405752-.0909738-.3699602-.1374716-.8713268-.3153758-1.9569475-.707574-2.4360762-1.5768792l-.1212984-.224402c-.297181-.5519077-.2810079-1.2028758.0424545-1.740632.3234624-.5316914.8895216-.8349374 1.5081434-.8389806l9.5987467.1718394c1.3261959.0141514 2.6200455.4932801 3.6429953 1.3484338l4.8903472 4.0958427c.9643223.808656 2.324886.9906036 3.4610477.4609339l11.1675393-5.9739462c.7884396-.3719818 1.5748576-.3962414 2.353189-.078844 2.4279896.9825171 3.9705009 5.0116456 4.0351934 5.183485.0060649.0181948.0121299.0363895.0161731.0545843.2506834 1.0714692.0626709 2.1833712-.5296696 3.1315203-.5802107.9259112-1.5041002 1.5910307-2.533115 1.8214977l-19.2662292 3.2689919s0 0-.0020216 0c-.454869.0748006-.9420842.1435364-1.5303815.1435364z" fill="#000"></path><path d="m38.0957842 91.6929981c1.1139236-.5033883 1.6072038-1.8134111 1.105837-2.9273347l-9.3804096-20.7480913-4.0311501 1.8214976 9.3783879 20.750113c.5033884 1.1139236 1.8134111 1.6072038 2.9273348 1.1038154" fill="#000"></path><path d="m10.5185929 78.5220135 24.0029317-8.9558652c1.8437357-.6873576 2.7211275-2.7918848 1.9104498-4.5871011l-2.6746297-5.915723c-.8106776-1.7933969-2.9697891-2.5262414-4.7043563-1.5964891l-22.58171876 12.1033565z" fill="#090b0d"></path><path d="m10.4417706 78.5543598-4.7710704 4.3222663-5.6707002-12.5462979 6.39444732-.7277904z" fill="#090b0d"></path><path d="m31.183797 67.7527372c-.1698178 0-.331549-.0970387-.4063496-.2607915l-2.5452448-5.6302674c-.101082-.2223804-.0020216-.4872153.2223804-.5882973.224402-.1004755.4872152-.0020216.5882972.2223804l2.5452448 5.6302674c.101082.2223804.0020216.4872153-.2223804.5882973-.0586276.0262813-.1212984.0384111-.1819476.0384111" fill="#000"></path><path d="m10.4417706 78.9991206c-.1698178 0-.331549-.0970388-.4063496-.2607916l-4.04530168-8.9518219c-.101082-.2244021-.00202164-.4872153.22035876-.5882973.22642368-.101082.48923688-.0020216.59031888.2203588l4.04530164 8.9538436c.101082.2223804.0020216.4872152-.2203588.5882972-.0606492.0262813-.12332.0384112-.1839692.0384112" fill="#fff"></path><path d="m42.3735744 87.5001168s-1.0290148-.0222381-1.7022209-.1435365l-10.6964972-2.1429384c-.9279328-.1677961-1.5344248-1.0734908-1.342369-2.0014236 0 0 .2587699-1.4980352 1.9023633-1.3120443.6529897.0748006 4.4091968.931976 4.8418278.9016514.6974658-.050541 1.01082-.5822323.7439635-1.2332004l3.8390943 1.7386104z" fill="#fff"></path><path d="m42.1875835 87.9468992c-.4589123 0-.9804954-.0404328-1.5970956-.1536446l-10.7025621-2.1429384c-.5599943-.101082-1.0492312-.4225228-1.370672-.9016515-.325484-.4811503-.4386958-1.0593393-.3194191-1.6274202.1111902-.6469248.7621583-1.8477789 2.3855352-1.6638097.2911162.0343679 1.0815774.1960991 1.9933371.3841116.9986901.2062073 2.5068336.5155182 2.7696468.5155182h.0040432c.179926-.0121298.3173975-.0748007.3780467-.1718394.0626709-.1031036.0566059-.2648348-.0181947-.4467824-.0950171-.2264237.0141514-.4872153.2425968-.5802107.224402-.0929955.4851936.0141515.5802106.2425968.1859909.454869.1698178.8996298-.0485193 1.2513951-.2163155.3477221-.5984055.5579727-1.0755125.5923406-.281008.0202164-1.1786161-.1556663-3.0122436-.5316914-.8167426-.1677961-1.6617881-.3416571-1.9124714-.3699601-1.1503132-.1314066-1.3787585.7662016-1.4131264.9481492-.0707574.3436788-.0060649.6812927.1839692.960279.1859909.2789863.4710422.4649772.7985478.5256264l10.7045838 2.1429384c1.2574601.2284453 2.049943.1334282 2.8141229.0060649.2425968-.0404328.4710421.12332.5114749.3659168s-.12332.4710422-.3659168.511475c-.454869.0748006-.9441059.1435364-1.5303815.1435364" fill="#000"></path><path d="m97.6553202 24.0976452 1.8781036 13.9204066-3.6531035 1.0100113c-1.5020785.4156492-1.5647494 2.518357-.0909738 3.0284167 3.5823461 1.2394675 9.5744875 2.0824914 17.5862465-1.1036132 1.291828-.5132944 1.249373-2.3566258-.068736-2.7975455l-3.63693-1.2168251-4.188838-15.6297031z" fill="#fff"></path><path d="m98.1445571 24.3954328 1.8295842 13.5633849c.0303247.2201566-.1071469.4287899-.3214408.4880239l-3.6531034 1.0098092c-.5963838.165168-.8228075.6564265-.836959 1.0611588-.0121298.4069562.1839692.91459.7722665 1.1183713 3.5419133 1.2255182 9.4147774 2.0295244 17.2769354-1.0965375.50541-.2005467.673206-.6509681.663098-1.0057659-.010108-.3511589-.200142-.7868223-.709596-.9566401l-3.63693-1.2170273c-.141515-.0475085-.250683-.1625398-.289095-.3066828l-4.063496-15.1639173zm4.5143219 19.2156882c-2.8747719 0-5.2279608-.5161247-7.0150906-1.1343422-.8612186-.2979897-1.3989749-1.0781406-1.3686503-1.98707.028303-.9063012.612557-1.648243 1.4879271-1.8904355l3.2770784-.9063012-1.8235193-13.5358907c-.0283029-.2082289.0929955-.4077647.2911162-.47832l7.8237465-2.7888524c.117255-.0418479.244619-.0325484.355809.0250684.109168.0576167.190034.1586987.22238.278582l4.128189 15.3988319 3.410507 1.1414179c.77631.2597807 1.293849.95664 1.316088 1.7752021.022238.823414-.456891 1.5524173-1.223093 1.8570785-4.180751 1.6623946-7.825768 2.2450312-10.882488 2.2450312z" fill="#000"></path><path d="m105.952131 24.5405866s3.392312-.0713639 4.233314-2.6283342-1.718394-2.454271-1.718394-2.454271 2.017597-3.8336359-2.199544-4.4813694c-4.21512-.6475313-7.2677962-2.2836445-7.2677962-2.2836445s-3.2002561 5.3128699-4.2919417 9.8031345c-.6590546 2.7079868-.5519077 5.1167709 1.487927 5.8807486 5.5797269 2.0911844 9.7564349-3.836264 9.7564349-3.836264" fill="#fff"></path><path d="m99.1735719 13.2774236c-.7217255 1.2558428-3.1294988 5.6094445-4.0331718 9.3238037-.7257688 2.9829298-.3194192 4.7860305 1.2109623 5.3591655 5.1996576 1.9486588 9.1964406-3.6195443 9.2368736-3.6757459.080865-.1152334.212272-.1851822.351765-.188619.032346-.0006065 3.091087-.1002733 3.822921-2.3226622.206207-.6277192.196099-1.0987613-.028303-1.3993792-.307289-.4101907-1.004755-.4787243-1.251395-.4716486-.157688.0068736-.307289-.0743963-.390176-.2080268-.084909-.1338325-.092996-.3026395-.018195-.4427391.006065-.0153645.790461-1.5419048.230467-2.6481462-.315376-.6216544-1.02295-1.0213326-2.104528-1.1871071-3.428701-.526435-6.070984-1.6793763-7.0272201-2.1388951zm-.5943622 15.9875335c-.8066344 0-1.6577448-.140504-2.5412015-.4716486-2.0196183-.7569021-2.6119589-2.9107573-1.7628701-6.4023318 1.0957289-4.5046182 4.2110762-9.7079152 4.3424828-9.9272632.1212984-.2027705.3820899-.274943.5903188-.162742.0303246.015971 3.0425683 1.6088211 7.1283023 2.236136 1.382802.2124744 2.312757.7738838 2.763582 1.6688638.511475 1.0138525.250684 2.1817539.010108 2.8689094.43061.0857175.976453.2880837 1.332261.7609452.412415.547258.469021 1.2926367.165775 2.2153132-.808656 2.4544731-3.608628 2.8563751-4.427392 2.9216741-.646925.8288724-3.592454 4.2921439-7.6013663 4.2921439z" fill="#000"></path></g></svg>