<svg xmlns="http://www.w3.org/2000/svg" height="40" viewBox="0 0 40 40" width="40"><path d="m17.1541867 1.02968c1.648-1.37290667 4.04384-1.37290667 5.6917333 0l15.55408 12.96496c1.01456.8437333 1.6 2.0937067 1.6 3.41456v22.3626667l-11.4486148-.0012885c-.0743513-.0660908-.1467552-.1284927-.2149077-.1872355l-.0769989-.0676656c-.3581565-.3301746-.6136528-.7571764-.732653-1.2296649-.3289918-2.1256012-.305666-3.8359979.0676656-5.2266434.1073105-.4129944.2869846-.8026631.5319827-1.152669.1236594-.16334.2566581-.3208233.3966575-.4713237.3150023-.3173618.5798199-.6790157.7886526-1.0733435.4853312-1.0407292.3931601-2.2587163-.2449981-3.2130417-.0070007-.0116479-1.8153267-3.2082331.0303324-4.9488845.2660242-.2496544.9310026-.4806661 1.4490078-.5786641 1.1176654-.2123212 1.9226565-.4573283 2.3893211-.7303264.0116677-.0070007.0233342-.0151662.0350006-.0233347l.0536967-.0397502c.2757047-.2095107 1.4850706-1.1934845 1.6286255-2.3799169.0641533-.5495143-.1108347-1.0989988-.4806721-1.5096636-.3033245-.2975095-.7034763-.4736743-1.1269837-.497009-.5553384-.0396628-1.5749803-.191325-2.2586551-.7723187-.2403062-.3523355-1.5329895-2.1233224-3.2223003-2.2586566-.3325041-.0536642-.6685026-.0793434-1.0056659-.0771329-1.5608251 0-4.4051942.5039824-5.9685281 3.8687461-.1213178.1983138-.6019898 1.0896805-1.1246541 3.4976697-.1679993.7653299-.3313214 1.3860162-.5109866 1.9530025-.3044893.9788159-.7338207 1.9144746-1.278646 2.7836505-1.0523772 1.6625206-2.3251992 3.1745138-3.7846871 4.4940173-1.0161491.884348-1.9705043 1.8375086-2.8559872 2.851328-.0023326.0046652-.0769989.0909974-.1376668.1609986-.317332.4129944-.5973397.852809-.8353371 1.3159792-.07816073.1586659-.24032107.2589996-.41765361.2589996-.07233376 0-.14349974-.0174988-.207665-.0489991-.1108347-.0548319-.19483433-.1516652-.23450007-.2694977-.03966574-.1166646-.03033245-.2449981.02449952-.3558298.24732476-.4818368.53434215-.9415126.85866286-1.3743384-.50050339-.5319827-.86801109-1.1748001-1.0733435-1.8759767-.32433264-1.2308895-.2811755-2.5293669.12366536-3.735706.62779454-1.9038721 2.18870914-3.2035411 4.07170454-3.3925395.5483196-.0559998 2.2096515-.223999 2.0743203-1.6239928-.0443219-.4713536-.4060057-1.2600093-2.3193155-1.2600093h-.1213328c-1.5467878.0303145-3.30386579.7793373-4.69920037 1.999654-1.06166566.9309697-2.00198359 2.4942737-2.52697752 3.6446131-1.68949006 3.7101103-.67225086 8.6379689 2.3167918 11.2209462.29865338.2869875.46315227.6848396.45498676 1.0989988-.03260789.4306307-.02480461.8399757.02270142 1.2265148l-8.40934409.0003043v-22.3628267c0-1.3208.58549333-2.5708267 1.60005333-3.41456zm6.2543367 24.819618.0583323.5856528c.016334.1575071.1096669.2951739.2496663.3686725l1.2250057.6300047c.197149.1236773.3686576.2834961.5086569.4689941.0466665.0630005.093333.1329987.1399994.2029999.2251638.3954926.5506792.7244964.945007.9519957.0746663.2275233.0700012.474845-.0116659.7000118-.0186666.032668-.0700011.1143321-.2963327.1376668l-1.3859864.1703319c-.1493326.0116479-.9986472.1073104-1.4023233.6976523-.2216664.3371633-.2695007.7583412-.1283335 1.136332.0023326.0116659.0070007.0233347.0116658.0350006.0093184.0256852.9823103 2.5036816.3406577 4.4940173-.0070007.0174988-.0116658.0373331-.0139984.0559997-.0446839.232833-.3493559 1.9318233-.1707457 3.2870086l-6.7571286-.0006387.0002273-.8550937c0-1.0995762.8803791-2.2470782 1.8037554-2.9510518l.1632247-.1195265c1.2914886-.9775316 2.0288276-2.5222586 1.9763282-4.1415922-.0793255-1.4094017.049011-4.6667653 2.7439878-5.8544378zm2.4199776-11.5382184c.2660212-.032668.9870083-.0396687 1.0943397-.032668-.4713208.6442211-.9029848 1.8224558-.3056541 3.8011137.2613321.8632025.5530087 2.4288659-.4199832 3.2175216-.3803503.2776662-.8586628.3838298-1.3206682.2916646-.5565032-.0688125-1.0616657-.360489-1.3999938-.8073222-.6370233-.9496692-.1890253-2.2189968.3896388-3.4486618.0793315-.1726584.1656637-.3709901.2543314-.5833232.3756613-.8819886.8890073-2.0859982 1.644989-2.4056597.0221669-.0093303.0431691-.0198314.0630004-.032665zm7.4933532 3.0240164c.1738232-.071166.3744905-.0315003.5086569.1014984.1329987.1341605.1726644.3348247.1014984.5086569-.0723367.174997-.2426626.2881643-.431661.2881643-.1236594.0000149-.2426596-.0489752-.3301596-.1364841s-.136499-.2065092-.136499-.3301745c0-.1889955.1131643-.3593273.2881643-.431661zm-4.8975154-1.633341c.1738233-.071166.3744905-.0315002.508657.1014984.1329986.1341605.1726644.3348248.1014984.5086569-.0723368.174997-.2426626.2881643-.431661.2881643-.1236594.0000149-.2426596-.0489841-.3301596-.1364841-.0875-.0875089-.136499-.2065091-.136499-.3301745 0-.1889954.1131643-.3593273.2881642-.431661z" fill="#090b0d" fill-rule="evenodd"></path></svg>