<?xml version="1.0" encoding="UTF-8"?>
<svg width="154px" height="46px" viewBox="0 0 154 46" version="1.1" xmlns="http://www.w3.org/2000/svg" xmlns:xlink="../../../../../www.w3.org/1999/xlink.html">
    <title>logo copy</title>
    <g id="Home" stroke="none" stroke-width="1" fill="none" fill-rule="evenodd">
        <g id="logo-copy" fill="#042740">
            <path d="M48.072,39.976 C49.096,39.976 49.72,39.76 49.944,39.328 C50.072,39.088 50.148,38.876 50.172,38.692 C50.196,38.508 50.208,38.232 50.208,37.864 L50.208,37.864 L50.208,35.152 L53.208,35.152 C54.632,35.152 56.008,34.64 57.336,33.616 C57.992,33.12 58.528,32.452 58.944,31.612 C59.36,30.772 59.568,29.832 59.568,28.792 C59.568,27.752 59.36,26.808 58.944,25.96 C58.528,25.112 57.992,24.44 57.336,23.944 C56.008,22.92 54.64,22.408 53.232,22.408 L53.232,22.408 L48.096,22.408 C47.072,22.408 46.448,22.624 46.224,23.056 C46.096,23.296 46.02,23.508 45.996,23.692 C45.972,23.876 45.96,24.152 45.96,24.52 L45.96,24.52 L45.96,37.84 C45.96,38.4 46.008,38.816 46.104,39.088 C46.296,39.68 46.952,39.976 48.072,39.976 Z M53.232,30.904 L50.208,30.904 L50.208,26.656 L53.208,26.656 C53.704,26.656 54.184,26.836 54.648,27.196 C55.112,27.556 55.344,28.088 55.344,28.792 C55.344,29.496 55.112,30.024 54.648,30.376 C54.184,30.728 53.712,30.904 53.232,30.904 L53.232,30.904 Z M66.864,40.312 C70.272,40.312 71.976,39.6 71.976,38.176 C71.976,37.872 71.872,37.504 71.664,37.072 C71.296,36.352 70.856,35.992 70.344,35.992 C70.088,35.992 69.768,36.08 69.384,36.256 L69.384,36.256 L69.12,36.352 C68.592,36.544 67.864,36.64 66.936,36.64 C66.408,36.64 65.88,36.488 65.352,36.184 C64.824,35.88 64.56,35.504 64.56,35.056 L64.56,35.056 L70.248,35.056 C70.84,35.056 71.38,34.82 71.868,34.348 C72.356,33.876 72.6,33.152 72.6,32.176 C72.6,31.184 72.328,30.272 71.784,29.44 C70.744,27.872 69.112,27.088 66.888,27.088 C64.936,27.088 63.308,27.692 62.004,28.9 C60.7,30.108 60.048,31.72 60.048,33.736 C60.048,35.336 60.552,36.784 61.56,38.08 C62.072,38.752 62.788,39.292 63.708,39.7 C64.628,40.108 65.68,40.312 66.864,40.312 Z M67.536,32.872 L64.512,32.872 C64.512,32.392 64.768,31.94 65.28,31.516 C65.792,31.092 66.308,30.88 66.828,30.88 C67.348,30.88 67.748,30.992 68.028,31.216 C68.308,31.44 68.448,31.736 68.448,32.104 C68.448,32.616 68.144,32.872 67.536,32.872 L67.536,32.872 Z M80.616,40 C80.968,40 81.236,39.988 81.42,39.964 C81.604,39.94 81.816,39.872 82.056,39.76 C82.504,39.536 82.728,38.92 82.728,37.912 C82.728,37.048 82.544,36.512 82.176,36.304 C81.952,36.176 81.74,36.1 81.54,36.076 C81.34,36.052 81.052,36.04 80.676,36.04 C80.3,36.04 80.044,35.944 79.908,35.752 C79.772,35.56 79.704,35.248 79.704,34.816 L79.704,34.816 L79.704,31.504 L81.264,31.6 C81.632,31.6 81.908,31.588 82.092,31.564 C82.276,31.54 82.488,31.472 82.728,31.36 C83.16,31.136 83.376,30.52 83.376,29.512 C83.376,28.488 83.168,27.872 82.752,27.664 C82.512,27.536 82.3,27.46 82.116,27.436 C81.932,27.412 81.66,27.4 81.3,27.4 C80.94,27.4 80.408,27.432 79.704,27.496 L79.704,27.496 L79.704,25.144 C79.704,24.584 79.664,24.176 79.584,23.92 C79.376,23.328 78.728,23.032 77.64,23.032 C76.616,23.032 76,23.232 75.792,23.632 C75.664,23.84 75.588,24.032 75.564,24.208 C75.54,24.384 75.528,24.656 75.528,25.024 L75.528,25.024 L75.528,27.496 L74.736,27.4 C74.352,27.4 74.032,27.504 73.776,27.712 C73.632,27.84 73.52,28.052 73.44,28.348 C73.36,28.644 73.32,29.12 73.32,29.776 C73.32,30.432 73.436,30.896 73.668,31.168 C73.9,31.44 74.192,31.576 74.544,31.576 C74.896,31.576 75.224,31.552 75.528,31.504 L75.528,31.504 L75.528,35.056 C75.528,36.848 75.96,38.12 76.824,38.872 C77.688,39.624 78.952,40 80.616,40 Z M101.592,39.976 C102.056,39.976 102.44,39.928 102.744,39.832 C103.352,39.64 103.656,38.992 103.656,37.888 L103.656,37.888 L103.656,24.568 C103.656,24.2 103.644,23.92 103.62,23.728 C103.596,23.536 103.52,23.32 103.392,23.08 C103.168,22.648 102.548,22.432 101.532,22.432 C100.516,22.432 99.872,22.648 99.6,23.08 C98.688,24.232 96.872,26.608 94.152,30.208 L94.152,30.208 L88.704,23.056 L88.56,22.912 C88.464,22.8 88.26,22.692 87.948,22.588 C87.636,22.484 87.264,22.432 86.832,22.432 C85.824,22.432 85.2,22.64 84.96,23.056 C84.832,23.296 84.756,23.508 84.732,23.692 C84.708,23.876 84.696,24.152 84.696,24.52 L84.696,24.52 L84.696,37.84 C84.696,38.224 84.708,38.512 84.732,38.704 C84.756,38.896 84.832,39.104 84.96,39.328 C85.2,39.76 85.808,39.976 86.784,39.976 C87.792,39.976 88.416,39.76 88.656,39.328 C88.784,39.104 88.86,38.9 88.884,38.716 C88.908,38.532 88.92,38.256 88.92,37.888 L88.92,37.888 L88.92,29.8 C89,29.896 89.512,30.596 90.456,31.9 C91.4,33.204 92.032,34.056 92.352,34.456 L92.352,34.456 L92.544,34.72 C92.672,34.88 92.884,35.044 93.18,35.212 C93.476,35.38 93.804,35.464 94.164,35.464 C94.524,35.464 94.86,35.372 95.172,35.188 C95.484,35.004 95.68,34.86 95.76,34.756 C95.84,34.652 95.984,34.464 96.192,34.192 C96.4,33.92 96.888,33.244 97.656,32.164 C98.424,31.084 99.008,30.296 99.408,29.8 L99.408,29.8 L99.408,37.84 C99.408,38.4 99.448,38.816 99.528,39.088 C99.608,39.296 99.72,39.456 99.864,39.568 C100.008,39.68 100.216,39.776 100.488,39.856 C100.76,39.936 101.128,39.976 101.592,39.976 Z M116.076,39.952 C116.948,39.952 117.496,39.744 117.72,39.328 C117.832,39.088 117.9,38.876 117.924,38.692 C117.948,38.508 117.96,38.232 117.96,37.864 L117.96,37.864 L117.96,29.464 C117.96,29.096 117.948,28.82 117.924,28.636 C117.9,28.452 117.828,28.24 117.708,28 C117.588,27.76 117.376,27.592 117.072,27.496 C116.768,27.4 116.304,27.352 115.68,27.352 C114.512,27.352 113.88,27.8 113.784,28.696 C113.672,28.536 113.528,28.372 113.352,28.204 C113.176,28.036 112.864,27.856 112.416,27.664 C111.968,27.472 111.472,27.376 110.928,27.376 C109.504,27.376 108.196,28.004 107.004,29.26 C105.812,30.516 105.216,31.98 105.216,33.652 C105.216,35.324 105.808,36.792 106.992,38.056 C108.176,39.32 109.46,39.952 110.844,39.952 C112.228,39.952 113.216,39.528 113.808,38.68 C113.856,39.096 114.028,39.412 114.324,39.628 C114.62,39.844 115.204,39.952 116.076,39.952 Z M111.552,35.752 C110.96,35.752 110.456,35.54 110.04,35.116 C109.624,34.692 109.416,34.216 109.416,33.688 C109.416,33.16 109.612,32.672 110.004,32.224 C110.396,31.776 110.908,31.552 111.54,31.552 C112.172,31.552 112.676,31.776 113.052,32.224 C113.428,32.672 113.616,33.156 113.616,33.676 C113.616,34.196 113.42,34.672 113.028,35.104 C112.636,35.536 112.144,35.752 111.552,35.752 Z M130.392,39.976 C131.416,39.976 132.04,39.76 132.264,39.328 C132.376,39.104 132.444,38.9 132.468,38.716 C132.492,38.532 132.504,38.256 132.504,37.888 L132.504,37.888 L132.504,33.664 C132.504,31.904 131.972,30.412 130.908,29.188 C129.844,27.964 128.512,27.352 126.912,27.352 C126.256,27.352 125.656,27.536 125.112,27.904 C124.904,28.032 124.688,28.2 124.464,28.408 C124.24,28.616 124.096,28.776 124.032,28.888 C124.032,28.504 123.952,28.176 123.792,27.904 C123.568,27.536 122.968,27.352 121.992,27.352 C120.984,27.352 120.368,27.552 120.144,27.952 C120.016,28.176 119.94,28.38 119.916,28.564 C119.892,28.748 119.88,29.016 119.88,29.368 L119.88,29.368 L119.88,37.864 C119.88,38.232 119.892,38.508 119.916,38.692 C119.94,38.876 120.008,39.088 120.12,39.328 C120.344,39.76 120.96,39.976 121.968,39.976 C122.992,39.976 123.608,39.76 123.816,39.328 C123.944,39.104 124.02,38.9 124.044,38.716 C124.068,38.532 124.08,38.256 124.08,37.888 L124.08,37.888 L124.08,33.64 C124.08,33.016 124.276,32.512 124.668,32.128 C125.06,31.744 125.572,31.552 126.204,31.552 C126.836,31.552 127.34,31.736 127.716,32.104 C128.092,32.472 128.28,32.984 128.28,33.64 L128.28,33.64 L128.28,37.864 C128.28,38.408 128.328,38.816 128.424,39.088 C128.6,39.68 129.256,39.976 130.392,39.976 Z M136.524,25.648 C137.028,25.648 137.432,25.6 137.736,25.504 C138.04,25.408 138.248,25.248 138.36,25.024 C138.488,24.784 138.564,24.572 138.588,24.388 C138.612,24.204 138.624,23.928 138.624,23.56 C138.624,23.192 138.612,22.916 138.588,22.732 C138.564,22.548 138.488,22.336 138.36,22.096 C138.152,21.664 137.544,21.448 136.536,21.448 C135.512,21.448 134.888,21.664 134.664,22.096 C134.552,22.32 134.484,22.524 134.46,22.708 C134.436,22.892 134.424,23.168 134.424,23.536 C134.424,23.904 134.436,24.18 134.46,24.364 C134.484,24.548 134.556,24.76 134.676,25 C134.796,25.24 135.008,25.408 135.312,25.504 C135.616,25.6 136.02,25.648 136.524,25.648 Z M136.512,40 C137.536,40 138.152,39.792 138.36,39.376 C138.488,39.136 138.564,38.924 138.588,38.74 C138.612,38.556 138.624,38.28 138.624,37.912 L138.624,37.912 L138.624,29.512 C138.624,29.208 138.616,28.976 138.6,28.816 C138.584,28.352 138.44,28.008 138.168,27.784 C137.848,27.512 137.304,27.376 136.536,27.376 C135.512,27.376 134.888,27.584 134.664,28 C134.552,28.24 134.484,28.452 134.46,28.636 C134.436,28.82 134.424,29.096 134.424,29.464 L134.424,29.464 L134.424,37.888 C134.424,38.272 134.436,38.552 134.46,38.728 C134.484,38.904 134.552,39.112 134.664,39.352 C134.888,39.784 135.504,40 136.512,40 Z M151.044,39.952 C151.916,39.952 152.464,39.744 152.688,39.328 C152.8,39.088 152.868,38.876 152.892,38.692 C152.916,38.508 152.928,38.232 152.928,37.864 L152.928,37.864 L152.928,29.464 C152.928,29.096 152.916,28.82 152.892,28.636 C152.868,28.452 152.796,28.24 152.676,28 C152.556,27.76 152.344,27.592 152.04,27.496 C151.736,27.4 151.272,27.352 150.648,27.352 C149.48,27.352 148.848,27.8 148.752,28.696 C148.64,28.536 148.496,28.372 148.32,28.204 C148.144,28.036 147.832,27.856 147.384,27.664 C146.936,27.472 146.44,27.376 145.896,27.376 C144.472,27.376 143.164,28.004 141.972,29.26 C140.78,30.516 140.184,31.98 140.184,33.652 C140.184,35.324 140.776,36.792 141.96,38.056 C143.144,39.32 144.428,39.952 145.812,39.952 C147.196,39.952 148.184,39.528 148.776,38.68 C148.824,39.096 148.996,39.412 149.292,39.628 C149.588,39.844 150.172,39.952 151.044,39.952 Z M146.52,35.752 C145.928,35.752 145.424,35.54 145.008,35.116 C144.592,34.692 144.384,34.216 144.384,33.688 C144.384,33.16 144.58,32.672 144.972,32.224 C145.364,31.776 145.876,31.552 146.508,31.552 C147.14,31.552 147.644,31.776 148.02,32.224 C148.396,32.672 148.584,33.156 148.584,33.676 C148.584,34.196 148.388,34.672 147.996,35.104 C147.604,35.536 147.112,35.752 146.52,35.752 Z" id="PetMania" fill-rule="nonzero"></path>
            <g id="Group-2">
                <path d="M17.1541867,1.03558629 C18.8021867,-0.345195431 21.1980267,-0.345195431 22.84592,1.03558629 L22.84592,1.03558629 L38.4,14.0749139 C39.41456,14.923487 40,16.1806302 40,17.50906 L40,17.50906 L40,40 L28.5534228,40.0005261 C28.4783567,39.9333809 28.4052524,39.870014 28.3364775,39.8103946 L28.3364775,39.8103946 L28.2594786,39.7423409 C27.9013221,39.4102725 27.6458258,38.9808213 27.5268256,38.5056226 C27.1978338,36.3678288 27.2211596,34.6476213 27.5944912,33.2489989 C27.7018017,32.8336356 27.8814758,32.4417317 28.1264739,32.0897182 C28.2501333,31.9254412 28.383132,31.7670546 28.5231314,31.6156909 C28.8381337,31.2965087 29.1029513,30.9327804 29.311784,30.5361907 C29.7971152,29.4894918 29.7049441,28.2645182 29.0667859,27.3047188 C29.0597852,27.2930041 27.2514592,24.0780831 29.0971183,22.3274472 C29.3631425,22.0763608 30.0281209,21.8440241 30.5461261,21.7454639 C31.6637915,21.5319248 32.4687826,21.2855123 32.9354472,21.0109484 C32.9471149,21.0039075 32.9587814,20.9956952 32.9704478,20.9874798 C33.0334363,20.9428736 34.494104,19.8727752 34.65277,18.5539334 C34.7169233,18.001267 34.5419353,17.4486307 34.1720979,17.0356102 C33.8687734,16.7363942 33.4686216,16.559219 33.0451142,16.5357504 C32.4897758,16.4958601 31.4701339,16.3433279 30.7864591,15.7590016 C30.5461529,15.4046451 29.2534696,13.6234998 27.5641588,13.4873893 C27.2316547,13.4334173 26.8956562,13.4075908 26.5584929,13.409814 C24.9976678,13.409814 22.1532987,13.9166872 20.5899648,17.3007513 C20.468647,17.5002027 19.987975,18.3966823 19.4653107,20.8184839 C19.2973114,21.5882037 19.1339893,22.2124503 18.9543241,22.7826889 C18.6498348,23.7671193 18.2205034,24.708145 17.6756781,25.5823065 C16.6233009,27.2543634 15.3504789,28.7750295 13.890991,30.1021017 C12.8748419,30.9915224 11.9204867,31.9501503 11.0350038,32.9697851 C11.0336042,32.9726003 11.0061645,33.0049842 10.9713324,33.0456479 L10.897337,33.1317071 C10.580005,33.5470705 10.2999973,33.9894079 10.0619999,34.4552349 C9.98383917,34.6148109 9.82167883,34.7157201 9.64434629,34.7157201 C9.57201253,34.7157201 9.50084655,34.6981209 9.43668129,34.66644 C9.32584659,34.6112935 9.24184696,34.5139048 9.20218122,34.3953965 C9.16251548,34.2780626 9.17184877,34.148993 9.22668074,34.0375255 C9.4740055,33.5529249 9.76102289,33.0906124 10.0853436,32.6553039 C9.58484021,32.1202697 9.21733251,31.4737651 9.0120001,30.7685665 C8.68766746,29.5306166 8.7308246,28.2246911 9.13566546,27.0114323 C9.76346,25.0966395 11.3243746,23.7895155 13.20737,23.599433 C13.7556896,23.543112 15.4170215,23.3741491 15.2816903,21.9661249 C15.2373684,21.4920676 14.8756846,20.6988882 12.9623748,20.6988882 L12.9623748,20.6988882 L12.841042,20.6988882 C11.2942542,20.7293766 9.53717621,21.4826958 8.14184163,22.7100123 C7.08017597,23.6463221 6.13985804,25.2185932 5.61486411,26.375531 C3.92537405,30.1069228 4.94261325,35.0630477 7.93165591,37.6608411 C8.23030929,37.9494748 8.39480818,38.349609 8.38664267,38.7661438 C8.35400526,39.1996367 8.36185222,39.611683 8.4094732,40.0007497 L0,40 L0,17.5088991 C0,16.1805229 0.585493333,14.923326 1.60005333,14.074753 L1.60005333,14.074753 Z M23.4085234,25.9975708 L23.4668557,26.586583 C23.4831897,26.7449936 23.5765226,26.88345 23.716522,26.9573702 L23.716522,26.9573702 L24.9415277,27.5909886 C25.1386767,27.7153753 25.3101853,27.8761108 25.4501846,28.0626729 C25.4968511,28.1260347 25.5435176,28.1964344 25.590184,28.2668372 C25.8153478,28.6645984 26.1408632,28.9954893 26.535191,29.2242936 C26.6098573,29.4531219 26.6051922,29.7018624 26.5235251,29.9283207 C26.5048585,29.9611761 26.453524,30.0433086 26.2271924,30.0667772 L26.2271924,30.0667772 L24.841206,30.238086 C24.6918734,30.2498008 23.8425588,30.346012 23.4388827,30.9397402 C23.2172163,31.2788374 23.169382,31.7024312 23.3105492,32.0825902 C23.3128818,32.094323 23.3175499,32.1060588 23.322215,32.1177916 C23.3228363,32.1195137 23.3277405,32.1321976 23.3361638,32.154967 L23.3712267,32.2526559 C23.5622931,32.7994943 24.2189717,34.9027347 23.6628727,36.6375867 C23.655872,36.6551859 23.6512069,36.675134 23.6488743,36.6939077 C23.6041767,36.9281477 23.2993324,38.6378553 23.4782923,40.0010186 L16.721,40 L16.7212273,39.1391298 C16.7212273,38.0332463 17.6016064,36.8791622 18.5249827,36.1711506 L18.6882074,36.0509385 C19.979696,35.0677997 20.717035,33.5142121 20.6645356,31.88559 C20.5852101,30.4681039 20.7135466,27.1920559 23.4085234,25.9975708 L23.4085234,25.9975708 Z M25.828501,14.3931686 C26.0945222,14.3603132 26.8155093,14.3532724 26.9228407,14.3603132 C26.4515199,15.0082296 26.0198559,16.1932228 26.6171866,18.1832303 C26.8785187,19.0513842 27.1701953,20.6260284 26.1972034,21.4192078 C25.8168531,21.6984667 25.3385406,21.8052392 24.8765352,21.7125454 C24.320032,21.6433382 23.8148695,21.3499886 23.4765414,20.9005923 C22.8395181,19.9454758 23.2875161,18.6688672 23.8661802,17.4321489 C23.9455117,17.2585001 24.0318439,17.0590308 24.1205116,16.8454797 C24.4961729,15.9584319 25.0095189,14.7475161 25.7655006,14.426021 C25.7876675,14.4166372 25.8086697,14.4060759 25.828501,14.3931686 Z M33.3218542,17.4345309 C33.4956774,17.3629567 33.6963447,17.40285 33.8305111,17.5366115 C33.9635098,17.6715415 34.0031755,17.8733568 33.9320095,18.0481861 C33.8596728,18.2241869 33.6893469,18.3380033 33.5003485,18.3380033 C33.3766891,18.3380183 33.2576889,18.2887473 33.1701889,18.2007364 C33.0826889,18.1127255 33.0336899,17.9930427 33.0336899,17.8686679 C33.0336899,17.6785884 33.1468542,17.5072796 33.3218542,17.4345309 Z M28.4243388,15.791821 C28.5981621,15.7202468 28.7988293,15.7601401 28.9329958,15.8939016 C29.0659944,16.0288316 29.1056602,16.2306469 29.0344942,16.4054762 C28.9621574,16.581477 28.7918316,16.6952934 28.6028332,16.6952934 C28.4791738,16.6953084 28.3601736,16.6460283 28.2726736,16.5580265 C28.1851736,16.4700156 28.1361746,16.3503328 28.1361746,16.225958 C28.1361746,16.0358785 28.2493389,15.8645697 28.4243388,15.791821 Z" id="Combined-Shape"></path>
            </g>
        </g>
    </g>
</svg>