<svg xmlns="http://www.w3.org/2000/svg" xmlns:xlink="http://www.w3.org/1999/xlink" width="70px" height="85px" viewBox="0 0 70 85"><title>960A4C61-85B8-4A60-AF8F-77B9845D5E5E</title><g id="Home" stroke="none" stroke-width="1" fill="none" fill-rule="evenodd"><g id="Blog-Single" transform="translate(-1007.000000, -2939.000000)" fill="#FFD100"><g id="Group-8" transform="translate(306.000000, 178.000000)"><g id="Group-5" transform="translate(0.000000, 2726.000000)"><path d="M731.211435,103.440317 C735.417285,104.06178 739.458885,105.003214 745.117125,106.110752 L745.116478,106.110595 C747.055153,106.584383 750.774718,107.525817 754.330032,108.633434 C755.782486,109.107222 757.563312,109.734845 758.207382,110.836192 C759.659836,113.359032 760.796592,116.03561 761.440662,118.872229 C761.926915,120.761208 759.659771,122.336407 757.234811,122.022628 C748.021257,120.76124 739.13006,118.084629 730.725149,114.146631 C728.300189,112.885243 726.519299,108.319654 727.169835,105.643075 C727.656088,103.594056 729.430544,103.120236 731.211435,103.440317 Z M764.213156,53.6711516 C767.299535,54.6550161 767.788569,58.085752 765.349933,60.0470698 C757.710073,66.4229879 750.070212,72.8054482 742.099668,78.6887472 C739.013289,81.1420299 735.107518,82.6113827 731.532105,84.4130735 C729.582471,85.396938 728.115368,84.5791771 726.978623,83.1033804 C725.835505,81.480632 724.86381,79.6789248 723.561528,77.3918111 C726.647907,75.2652076 729.416934,73.4700588 732.179457,71.502199 C737.704505,67.5795635 743.070876,63.32459 748.603077,59.5615815 C751.854635,57.4340947 755.271372,55.472777 758.846785,53.8372552 C760.472564,53.1855979 762.587377,53.1855979 764.213156,53.6711516 Z M717.162694,32.0763129 C719.832941,32.238117 722.66285,33.831368 723.288925,36.3766439 C723.761592,38.6045569 724.23426,41.3180735 723.601994,43.3841187 C720.931746,50.5534613 717.7888,57.405441 714.79923,64.4125971 C714.071264,66.0702616 712.91369,67.716777 711.597878,70.032075 L711.348449,70.4736722 L711.094718,70.1968243 C708.76932,67.6234733 707.90428,65.5908195 708.206523,62.6706062 C708.679191,58.8495059 708.206523,55.0220329 708.519592,51.3564276 C709.14573,46.259503 709.931466,41.0007106 711.036463,36.059281 C711.662601,33.1902694 714.339071,31.9144451 717.162694,32.0763129 Z" id="Combined-Shape" transform="translate(737.523298, 77.062672) scale(-1, 1) rotate(-118.000000) translate(-737.523298, -77.062672) "></path></g></g></g></g></svg>