<svg xmlns="http://www.w3.org/2000/svg" xmlns:xlink="http://www.w3.org/1999/xlink" width="135px" height="128px" viewBox="0 0 135 128"><title>iStock-1390046822</title><g id="Home" stroke="none" stroke-width="1" fill="none" fill-rule="evenodd"><g id="Home-Mix" transform="translate(-330.000000, -2862.000000)" fill="#FFD100"><g id="Group-20" transform="translate(-10.501290, 2568.000000)"><g id="iStock-1390046822" transform="translate(408.001290, 358.000000) rotate(-6.000000) translate(-408.001290, -358.000000) translate(346.501290, 301.000000)"><path d="M121.030118,40.3063262 C108.380418,51.1639927 93.4256159,57.0054639 78.871285,56.7886391 C78.4434777,55.0942846 77.384894,53.5793171 76.4773412,52.4404393 C74.0184746,49.3567087 71.2274764,46.523408 68.180204,44.0193142 C67.1954272,43.2100539 66.1477778,42.4430225 64.9955685,41.9696079 C66.609755,34.1839 68.3339685,26.5894194 71.3737236,19.2854759 C74.2959342,12.2627613 78.1243308,6.42272749 82.7509364,1.9277877 C83.3912805,1.30571677 84.260563,1.04022958 85.0751736,1.21770014 C85.7660892,1.36813604 86.3066571,1.82416624 86.5581476,2.4686862 C88.0165193,6.20521826 91.6337459,8.68912164 93.1208203,9.58352397 C94.7507249,10.5641634 96.5200428,11.3517275 98.229905,12.1133521 C100.602664,13.1698939 103.056063,14.2624363 105.072088,15.8589869 C108.32643,18.4368614 110.401227,22.2695547 112.407684,25.9761091 C112.7569,26.6210397 113.117734,27.2879403 113.478568,27.9371143 C115.176813,30.9879242 117.57349,34.7878337 121.064972,37.111514 C121.526265,37.4184771 121.798941,37.9054432 121.834478,38.482616 C121.875482,39.1569083 121.574787,39.8387293 121.030118,40.3063262 Z M77.7382108,59.4639068 C77.311087,60.931307 76.0919046,62.1441023 75.0162359,63.2145379 L66.6958631,71.49125 C65.5737233,72.6075419 64.1905254,73.9825452 62.5749721,74.4458987 C62.5599374,74.4493208 62.5449026,74.4534273 62.5298679,74.4582183 C62.4642616,74.4766977 62.3993388,74.4938082 62.3330492,74.5081811 C62.0111686,74.5807298 61.6913383,74.6142664 61.3749249,74.6142664 C59.5365839,74.6142664 57.8069031,73.4952369 56.4530913,72.4610756 C53.5332043,70.2305452 50.8971325,67.6400089 48.6179312,64.7620155 C47.2313163,63.0105802 45.812035,60.8929794 45.7986252,58.4653354 C45.7916698,57.1977864 48.1773444,55.1924307 50.0943447,53.5809597 C50.9536495,52.858621 51.7653215,52.1762525 52.4121579,51.5383714 C54.229177,49.7464184 55.5783416,48.1333048 56.6622111,46.8371469 C58.8429347,44.2299792 60.0436653,42.793857 62.4246245,42.6579309 C62.5059489,42.6533453 62.5865899,42.6510867 62.6672309,42.6510867 C64.4324484,42.6510867 66.0042642,43.7361005 67.4435007,44.9187128 C70.4279005,47.3712697 73.1614932,50.1461892 75.569105,53.166337 C76.5347466,54.3777635 77.5571103,55.8652172 77.8332032,57.4544445 C77.83457,57.4626576 77.8359368,57.4701862 77.8379869,57.4777149 C77.9473307,58.1272311 77.9329793,58.7931735 77.7382108,59.4639068 Z M45.6005916,111.748252 C44.7573466,112.557923 43.6470979,112.944622 42.5546176,112.809791 C41.5863108,112.690701 40.7747071,112.181491 40.2692658,111.376611 C38.8212817,109.070795 36.5362033,106.940874 33.283433,104.866392 C32.4016443,104.303797 31.4854807,103.75626 30.5995233,103.225833 C27.5255984,101.387476 24.3471134,99.4861525 22.157369,96.7046626 C21.1744374,95.4555929 20.3667291,93.9964057 19.585605,92.5844437 C18.3077871,90.2752047 16.9864367,87.8872573 14.8276502,86.2419074 C13.0275111,84.8703262 10.8396802,84.1694784 8.72381112,83.4912164 C7.47100559,83.0901453 6.17548767,82.6747013 4.9977876,82.1285327 C4.13328891,81.7274616 3.35558179,81.2613704 2.68619328,80.7439476 C1.65972922,79.9507028 1.10576666,78.7132683 1.16631574,77.3492157 C1.23711579,75.7558819 2.11213881,74.2720556 3.50722784,73.380254 C16.0002248,65.3889458 30.7112589,60.9032457 44.9821846,60.7246116 C45.524256,62.5355915 46.6250738,64.1172902 47.7076449,65.4847648 C50.0467118,68.4387291 52.7520118,71.0970231 55.7485078,73.3857294 C57.2567676,74.5382956 59.1962516,75.7798367 61.3626238,75.7798367 C61.6065969,75.7798367 61.8539871,75.7634105 62.1041108,75.7298739 C61.5163884,88.9440044 55.3822064,102.358671 45.6005916,111.748252 Z M122.994205,38.4117784 C122.936799,37.4759686 122.468671,36.6489133 121.708049,36.1425781 C118.424321,33.957151 116.12742,30.3067192 114.493415,27.3706869 C114.135998,26.7274673 113.77653,26.0636467 113.42868,25.4215906 C111.366868,21.6118254 109.233982,17.6723623 105.792389,14.9463105 C103.662237,13.2588687 101.140498,12.1360749 98.7021332,11.0502398 C97.0237073,10.3028512 95.2878759,9.52993375 93.7187937,8.58604773 C90.83417,6.8511755 88.5618711,4.40601038 87.6406503,2.04516602 C87.2449628,1.03140054 86.3995993,0.315426956 85.3218803,0.0807387407 C84.1259335,-0.179752174 82.8623303,0.198596165 81.941793,1.09258784 C77.2010598,5.69819863 73.2845049,11.6686148 70.3014719,18.8378641 C67.2377979,26.199915 65.5005997,33.8160917 63.8816294,41.6193209 C63.3936831,41.5135777 62.8866017,41.4666264 62.3590183,41.4962619 C59.4757614,41.6608653 58.002355,43.4228406 55.7717433,46.0900322 C54.6479634,47.4336205 53.3743142,48.9565273 51.5970006,50.7093314 C50.9830356,51.3148393 50.1885169,51.982698 49.3473904,52.6897741 C47.0266386,54.6407183 44.6268859,56.6580514 44.6368635,58.4714952 C44.6389137,58.8438207 44.6691883,59.2072486 44.7222883,59.5638323 C37.6435133,59.6753931 30.4955785,60.8067422 23.4646414,62.9298185 C16.2032624,65.1220213 9.27818372,68.3080045 2.88191851,72.3994777 C1.16843427,73.4952369 0.0932439264,75.326065 0.00570062032,77.2971997 C-0.0719334122,79.0452128 0.646386408,80.6378622 1.97648427,81.6651792 C2.71428094,82.2353025 3.56647846,82.7465656 4.50936292,83.1839111 C5.75260088,83.7608786 7.08310879,84.1872733 8.36974253,84.5992952 C10.4851332,85.2775572 12.4831845,85.9174915 14.1241602,87.16793 C16.0885882,88.6654448 17.2936242,90.8425904 18.5693919,93.1484072 C19.3729998,94.6007501 20.203807,96.1023714 21.2450325,97.4246743 C23.5674245,100.375216 26.8394666,102.331978 30.0038051,104.225089 C30.8827235,104.750725 31.7916431,105.294155 32.6594221,105.847853 C35.7638267,107.827885 37.9313606,109.838716 39.2857875,111.996013 C39.9705524,113.086297 41.1102556,113.804255 42.4125391,113.965094 C42.6034123,113.988365 42.7944904,114 42.9850218,114 C44.2323601,114 45.4533877,113.501741 46.4044729,112.588722 C51.4525985,107.742332 55.659666,101.748166 58.5702588,95.2536885 C61.4056779,88.9262095 63.0301153,82.0847298 63.2781889,75.4403635 C64.9983021,74.8189085 66.3794498,73.4459585 67.5145741,72.3166627 L75.8349469,64.0399505 C76.9523029,62.9284496 78.3430182,61.5445489 78.8535166,59.7890071 C79.0339337,59.1675521 79.0913392,58.5536258 79.0558025,57.9554412 C79.253988,57.9574945 79.4521734,57.9588633 79.6510423,57.9588633 C86.8096382,57.9588633 94.0721106,56.5247945 101.255992,53.6903987 C108.583387,50.7991959 115.491176,46.5933559 121.78664,41.1897094 C122.605351,40.4861923 123.057077,39.4476507 122.994205,38.4117784 L122.994205,38.4117784 Z" id="Fill-3"></path><path d="M77.054295,35.0423184 C76.832069,35.1963822 76.6058748,35.351543 76.3770349,35.5083493 C75.3002973,36.246306 74.1389022,37.0421994 73.0872973,37.9573259 C74.5463164,34.087356 76.1104961,30.1548556 78.2216426,26.5265745 C78.9769462,25.2274884 79.7798697,24.0006689 80.6066032,22.880124 C80.6066032,22.8800554 80.6066032,22.8800554 80.6066032,22.8800554 C81.4465643,21.7418895 82.2064977,21.1665672 82.8672231,21.1665672 C82.9194726,21.1665672 82.9717222,21.1702011 83.0226489,21.1774003 C83.5325781,21.2495984 83.9194894,21.700751 84.1542817,22.066541 C85.5431938,24.232416 84.703894,27.3972029 83.3361463,29.4211499 C81.7263309,31.8026593 79.2441465,33.5238268 77.054295,35.0423184 Z M84.2567966,30.0899253 C85.8897605,27.6738595 86.7806484,24.0564802 85.0901439,21.4211461 C84.5696325,20.6098943 83.9075844,20.1262424 83.1747679,20.0225733 C82.032553,19.8611731 80.9002589,20.5640249 79.7137311,22.1717871 C78.8618649,23.3262713 78.0357929,24.5888813 77.2586635,25.9245807 C74.7976434,30.1545128 73.0820062,34.7425556 71.4225869,39.179483 C71.2942778,39.5216184 71.1666302,39.863891 71.0383212,40.2059578 C70.9364676,40.4774036 71.0436122,40.7851883 71.2889867,40.9266363 C71.374967,40.9762082 71.4688839,41 71.5614781,41 C71.7334386,41 71.9020922,40.9182029 72.0118824,40.7668131 C73.2592578,39.0420803 75.1594219,37.7399088 76.9967543,36.4806584 C77.2275783,36.3226865 77.4557567,36.1664287 77.6793054,36.0111993 C79.9511689,34.4357994 82.5266089,32.6501815 84.2567966,30.0899253 L84.2567966,30.0899253 Z" id="Fill-4"></path><path d="M93.1917016,48.2878744 C90.6556296,49.1233493 87.9322699,48.817453 85.2983611,48.5216616 L84.862987,48.4729244 C83.7490441,48.3491911 82.5533375,48.2357001 81.3331718,48.2357001 C81.2793615,48.2357001 81.2248524,48.2359064 81.1710421,48.2363876 C80.6189625,48.2409932 80.0850526,48.303341 79.5644206,48.3822554 C79.8097116,48.1612539 80.0340376,47.9535881 80.2332056,47.7692255 C80.4617246,47.557779 80.6594949,47.3751348 80.8006596,47.253395 C81.7105426,46.471469 82.5763991,45.6278139 83.4136033,44.8118613 C83.6763653,44.5561458 83.9384284,44.3004302 84.202588,44.0464332 C86.3934354,41.9376047 88.8107054,39.9030163 91.6416857,39.3004349 C93.232234,38.9619555 94.9856108,39.2765132 96.2183556,40.1213369 C96.8340292,40.5438175 97.6048441,41.2992782 97.7774563,42.4994915 C98.1401517,45.0224142 95.6795539,47.4684847 93.1917016,48.2878744 Z M96.8976232,39.162541 C95.4028153,38.138304 93.2930326,37.7534246 91.390804,38.1583075 C88.2649154,38.8235117 85.6890098,40.9799775 83.3716732,43.2111644 C83.106116,43.46688 82.8419564,43.7242453 82.5777968,43.9816107 C81.7531716,44.784915 80.9005929,45.6155781 80.0193621,46.3735822 C79.8614254,46.5092764 79.6566668,46.6987259 79.4197617,46.9180089 C78.8544043,47.4406447 78.080794,48.1563733 77.2282154,48.811885 C77.0192638,48.9724634 76.9437896,49.2496261 77.043723,49.4912498 C77.1429576,49.7328735 77.3924416,49.8808723 77.6566012,49.8533073 C78.1394962,49.8033327 78.6133062,49.723731 79.071742,49.6466726 C79.7943373,49.5254139 80.4764001,49.4108231 81.1808258,49.4049114 C82.394702,49.3950815 83.6029876,49.5091224 84.7295095,49.6341618 L85.163486,49.6826927 C86.5639512,49.8399716 87.9881767,50 89.4158965,50 C90.8037826,50 92.195163,49.8485641 93.5690724,49.3960439 C95.0792547,48.8984984 96.5251442,47.9118625 97.5349606,46.6889647 C98.6579883,45.3289979 99.1618483,43.7830874 98.9542943,42.3359573 C98.7698019,41.0561422 98.0590868,39.9588338 96.8976232,39.162541 L96.8976232,39.162541 Z" id="Fill-5"></path><path d="M35.2428296,73.6205874 C32.7441058,75.8478235 30.0381024,77.8996509 27.1543211,77.8996509 C27.0907842,77.8996509 27.0268288,77.8983564 26.9631524,77.8964146 C25.7037125,77.8569315 24.350118,77.2336161 24.1998193,76.1203217 C24.0871128,75.2847036 24.6426249,74.2995675 25.8510121,73.1914513 C25.8510819,73.1914513 25.8510819,73.1914513 25.8510819,73.1914513 C27.2613784,71.8982175 28.9060153,70.8153445 30.7391706,69.9719593 C33.4076517,68.7453936 36.3505062,68.1000713 39.1987179,68.1000713 C39.8382021,68.1000713 40.4729436,68.1324345 41.0987579,68.1984554 C41.4482459,68.2353495 42.3885365,68.3266137 43.2963962,68.4139944 C42.1431766,68.9428092 40.8058325,69.5615938 40.4031297,69.7674238 C38.4350195,70.7752141 36.8122125,72.2218495 35.2428296,73.6205874 Z M45.6678369,68.557687 C45.9054552,68.4495939 46.0372019,68.2081644 45.9907523,67.9667348 C45.944233,67.724658 45.7308856,67.540835 45.4676712,67.516239 C45.4327293,67.5123554 41.9633064,67.1816034 41.232039,67.1052262 C37.5956486,66.7226931 33.6821647,67.3906697 30.2128115,68.9861759 C28.2660429,69.8813423 26.5181847,71.0328252 25.0177787,72.4089089 C23.5334139,73.7694582 22.8624054,75.0639865 23.0233749,76.2568944 C23.2561809,77.9818535 25.1612425,78.9404517 26.9227705,78.9961164 C27.0010932,78.9987055 27.0790672,79 27.1570412,79 C30.4562883,79 33.3859612,76.8012436 36.0641367,74.4141333 C37.5782823,73.0645875 39.1440385,71.6690859 40.9759385,70.7312001 C41.6855155,70.3674377 45.6280827,68.5751632 45.6678369,68.557687 L45.6678369,68.557687 Z" id="Fill-6"></path><path d="M51.3803666,81.3735768 C51.3518909,82.4999133 51.2923141,83.7025654 51.0507081,84.8691039 C51.0505735,84.8697853 51.0504388,84.8704667 51.0502369,84.8711481 C50.5442713,87.3595818 49.241861,89.7321793 47.3828617,91.5528515 C45.9080489,92.9967155 43.4630423,94.4051471 41.4263896,93.6201867 C39.9986997,93.0703055 39.0626364,91.4063528 39.1499485,89.574097 C39.2277686,87.9408069 40.0442743,86.1514786 41.4490086,84.5365859 C42.7485242,83.0416178 44.3822086,81.8314704 45.9621056,80.6608436 C46.3026024,80.4087296 46.6533316,80.1559341 46.9925493,79.910634 C47.6799381,79.4145826 48.3907537,78.9014965 49.0704682,78.3577478 C50.2066692,77.4494559 51.1059093,76.6501862 51.7411263,76.0580589 C51.6052776,77.8589708 51.3976001,80.689462 51.3803666,81.3735768 Z M52.6607638,74.0500047 C52.439488,73.9505218 52.1801773,74.0023074 52.0131602,74.18015 C51.9999657,74.1937778 50.667868,75.6042536 48.3609317,77.4494559 C47.7033649,77.9754884 47.0041954,78.4797165 46.3281161,78.9675912 C45.986071,79.2149355 45.6324471,79.4697751 45.2862282,79.7266589 C43.6568522,80.9333993 41.9719384,82.1817045 40.590025,83.7707044 C39.0145037,85.5825185 38.0971551,87.6239609 38.006881,89.5182231 C37.8960075,91.8444862 39.1347345,93.9765533 41.0192475,94.7029143 C41.5336279,94.9011986 42.0876588,95 42.6680113,95 C43.3633437,95 44.0964417,94.858271 44.8440133,94.5748131 C45.9986595,94.1380425 47.1829259,93.3605773 48.1785659,92.3855093 C50.2012164,90.4047106 51.6191452,87.8188382 52.1711566,85.1048646 C52.4312078,83.8483828 52.4946218,82.5830428 52.5243766,81.403558 C52.5488805,80.4325782 52.9937209,74.6823339 52.9982312,74.6244158 C53.017215,74.3797971 52.8819722,74.1501689 52.6607638,74.0500047 L52.6607638,74.0500047 Z" id="Fill-7"></path></g></g></g></g></svg>