<svg xmlns="http://www.w3.org/2000/svg" xmlns:xlink="http://www.w3.org/1999/xlink" width="137px" height="119px" viewBox="0 0 137 119"><title>shape-1</title><g id="Home" stroke="none" stroke-width="1" fill="none" fill-rule="evenodd"><g id="About-us" transform="translate(-1029.000000, -2967.000000)" fill="#FFD100"><g id="Footer" transform="translate(0.000000, 2948.000000)"><path d="M1020.69056,116.717267 C1016.21851,116.883796 1013.69187,115.421083 1013.11063,112.32913 C1012.52939,109.237177 1014.23857,107.106453 1018.23817,105.93696 C1050.29229,98.6398591 1085.30327,87.3999027 1105.31086,76.539641 C1102.56352,74.8197034 1099.96016,72.6678978 1097.47886,70.0772786 C1089.30166,61.5279774 1085.80645,51.1146536 1087.89208,41.4997756 C1089.63972,33.4685245 1095.04801,27.1069351 1102.7434,24.0411909 C1111.15792,20.6876821 1120.58655,23.8756802 1127.34645,32.3602067 C1134.50956,41.355709 1138.29972,56.6617695 1130.38855,69.8027783 C1133.05672,69.234268 1135.88323,68.3491061 1138.88943,67.1473108 C1154.03569,61.1239646 1165.01142,47.3353931 1165.1182,47.1990641 C1167.87907,44.4094187 1170.47902,43.9305753 1172.91804,45.7625339 C1175.35706,47.5944925 1175.65309,50.3473894 1173.80614,54.0212244 C1173.28832,54.6833043 1160.94693,70.2635335 1142.96717,77.4163837 C1133.99165,80.9858082 1125.90079,82.3026725 1118.60899,81.3312363 C1110.79853,86.6637262 1099.62323,92.1043581 1085.18875,97.6094699 C1066.90686,104.575513 1043.39688,111.534555 1020.6994,116.708424 L1020.69056,116.717267 Z M1109.28901,34.0654835 C1108.42615,34.0654835 1107.535,34.2252315 1106.62255,34.595548 C1102.47088,36.294632 1099.55004,39.8017648 1098.61632,44.2164909 C1097.34326,50.2286972 1099.76916,57.061392 1105.27168,62.9646708 C1108.49669,66.420983 1111.95528,68.7807703 1115.78865,70.0514679 C1117.50022,68.5774699 1118.85108,67.1397934 1119.79874,65.7311705 C1125.79631,56.8000402 1123.2289,45.916021 1118.30642,39.5699684 C1117.18188,38.1177559 1113.63148,34.0514679 1109.28879,34.0514679 L1109.28901,34.0654835 Z" id="shape-1" transform="translate(1094.000000, 69.730033) rotate(-18.000000) translate(-1094.000000, -69.730033) "></path></g></g></g></svg>