<svg xmlns="http://www.w3.org/2000/svg" xmlns:xlink="http://www.w3.org/1999/xlink" width="353px" height="350px" viewBox="0 0 353 350"><title>istockphoto-1320930101-2048x2048</title><defs><path d="M143.21749,0 L205.410824,0 C279.760352,1.62361815e-07 341.142047,58.1166233 345.201945,132.355221 C346.090278,148.599125 347.550933,164.434422 349.583911,179.861111 C350.253457,184.941775 350.860926,190.038901 351.406316,195.152489 C359.60637,272.036301 303.927182,341.010403 227.04337,349.210457 C222.111679,349.736448 217.15552,350 212.195859,350 L140.595497,350 C63.2756325,350 0.59549756,287.319865 0.59549756,210 C0.59549756,208.765501 0.611825995,207.531056 0.644478581,206.296989 C0.965911949,194.148785 1.40758136,182.243392 1.96948682,170.580808 C2.51763013,159.203864 2.95135489,147.724225 3.27066111,136.141892 C5.36002603,60.3534328 67.400236,1.39274037e-14 143.21749,0 Z" id="path-1"></path></defs><g id="Home" stroke="none" stroke-width="1" fill="none" fill-rule="evenodd"><g id="Food-products-Copy-3" transform="translate(0.000000, -164.000000)"><g id="Group-21-Copy" transform="translate(0.000000, 140.000000)"><g id="iStock-1271793136" transform="translate(0.000000, 24.000000)"><mask id="mask-2" fill="white"><use xlink:href="#path-1"></use></mask><use id="istockphoto-1320930101-2048x2048" fill="#E5EEFF" xlink:href="#path-1"></use></g></g></g></g></svg>